<svg fill="none" height="8" viewBox="0 0 10 8" width="10" xmlns="http://www.w3.org/2000/svg"><g clip-rule="evenodd" fill="#7b68ee" fill-rule="evenodd"><path d="m7.58786 3.99411-2.29457 2.29458c-.39053.39052-.39053 1.02368 0 1.41421.39052.39052 1.02369.39052 1.41421 0l2.99997-2.99997c.19569-.19569.29333-.45231.29293-.7088.0004-.2565-.09722-.51313-.29293-.70883l-2.9924-2.992407c-.39052-.3905244-1.02369-.3905237-1.41421.000001-.39053.390524-.39053 1.023686 0 1.414216z"/><path d="m2.58798 3.99411-2.29457 2.29458c-.3905241.39052-.3905241 1.02368 0 1.41421.390525.39052 1.02369.39052 1.41421 0l2.99998-2.99997c.19569-.19569.29332-.45231.29289-.7088.00044-.2565-.09719-.51313-.29289-.70883l-2.99241-2.992407c-.39052-.3905244-1.023687-.3905237-1.414211.000001-.3905242.390524-.3905242 1.023686 0 1.414216z"/></g></svg>