<svg width="11" height="16" viewBox="0 0 11 16" fill="none" xmlns="http://www.w3.org/2000/svg" aria-hidden="true"><path d="M3.32544 11.5312C3.32544 11.5312 3.42199 12.0519 3.48386 13.2832C3.51054 13.8143 3.61199 14.1466 3.71872 14.3528C3.8504 14.6071 4.09383 14.8211 4.34221 14.9637C4.57317 15.0963 4.94407 15.2248 5.51385 15.2242C6.10354 15.2236 6.48312 15.0813 6.71349 14.942C6.93951 14.8053 7.15918 14.609 7.27932 14.3737C7.38369 14.1694 7.4868 13.8327 7.51879 13.2832C7.59046 12.0519 7.70232 11.5312 7.70232 11.5312" stroke="#7B68EE" stroke-width="1.16293" stroke-linecap="round" stroke-linejoin="round"></path><path d="M5.51365 1C3.17191 1 1 3.16195 1 5.49139C0.999991 8.0298 2.8831 8.49925 2.99693 10.5917C3.01854 10.989 3.16983 11.3754 3.54756 11.5003C3.94377 11.6314 4.57541 11.7602 5.52787 11.7602C6.48269 11.7602 7.11337 11.6308 7.50764 11.4993C7.88171 11.3747 8.03189 10.9917 8.05026 10.5978C8.15049 8.44853 10.0273 8.03762 10.0273 5.49139C10.0273 3.16195 7.8554 1 5.51365 1Z" fill="#7B68EE" fill-opacity="0.1" stroke="#7B68EE" stroke-width="1.16293" stroke-linecap="round" stroke-linejoin="round"></path><path d="M5.99227 3.93172C5.99227 3.93172 7.29158 4.14691 7.29158 5.65149" stroke="#7B68EE" stroke-width="1.16293" stroke-linecap="round" stroke-linejoin="round"></path></svg>