<svg width="69" height="42" viewBox="0 0 69 42" fill="none" xmlns="http://www.w3.org/2000/svg">
<path d="M33.3691 0.5H66.8174C66.8174 11.9098 66.8174 23.3196 66.8174 34.7294C55.6724 34.7294 44.5141 34.7294 33.3691 34.7294V0.5Z" fill="white"/>
<path d="M0 0.5H33.408C33.408 11.9098 33.408 23.3196 33.408 34.7294C22.2764 34.7294 11.1449 34.7294 0 34.7294V0.5Z" fill="#010101"/>
<path d="M16.0876 2.41175C17.5781 2.24659 19.0954 2.32917 20.5724 2.63197C23.2445 3.1825 25.7689 4.50378 27.7697 6.41688C28.8841 7.47666 29.8509 8.70159 30.5895 10.0642C27.8234 11.6882 25.0573 13.2985 22.2912 14.9226C21.7406 13.9454 20.9216 13.1471 19.9279 12.6654C19.0148 12.225 17.9675 12.0323 16.9738 12.1837C15.7653 12.3213 14.624 12.9269 13.7781 13.8216C12.9321 14.7162 12.395 15.9136 12.301 17.1523C12.113 19.0791 13.0395 21.0748 14.6106 22.1621C15.9802 23.1531 17.8198 23.4008 19.4042 22.8228C20.6262 22.3961 21.6601 21.4877 22.3046 20.3454C25.0573 21.9832 27.8368 23.5935 30.6029 25.2176C29.6227 26.9931 28.2799 28.5621 26.6954 29.8008C25.0438 31.0945 23.1371 32.0304 21.123 32.5259C18.8134 33.0902 16.3562 33.0902 14.0466 32.4984C12.0862 32.0029 10.2197 31.0808 8.60842 29.8283C6.86283 28.4795 5.42607 26.7178 4.419 24.7359C2.7674 21.5153 2.29743 17.689 3.11652 14.1519C3.74762 11.3442 5.18437 8.72912 7.21195 6.70591C9.57521 4.29733 12.771 2.74207 16.0876 2.41175Z" fill="white"/>
<path d="M35.7988 2.94824C38.9812 2.94824 42.1501 2.94824 45.3324 2.94824C48.5282 7.02219 51.6971 11.1099 54.8929 15.1838C54.9064 11.1099 54.8929 7.02219 54.8929 2.94824C58.0753 2.94824 61.2442 2.94824 64.4265 2.94824C64.4265 12.7202 64.4265 22.5059 64.4265 32.2779C64.3326 32.2779 64.2386 32.2779 64.1446 32.2779C63.3255 32.2641 62.5064 32.2916 61.6873 32.2779C60.2371 32.2916 58.7869 32.2779 57.3368 32.2779C56.5177 32.2779 55.6986 32.2779 54.8795 32.2779C51.7106 28.2039 48.5282 24.1438 45.3593 20.0698C45.3459 24.1438 45.3593 28.2177 45.3593 32.2779C44.8625 32.2779 44.3791 32.2779 43.8823 32.2779C43.8151 32.2779 43.748 32.2779 43.6674 32.2779C41.1027 32.2916 38.5381 32.2779 35.96 32.2779C35.9197 32.2779 35.8525 32.2779 35.8123 32.2779C35.7988 22.5059 35.7988 12.734 35.7988 2.94824Z" fill="#010101"/>
<path d="M2.00124 37.5227C2.52492 37.1511 3.20972 37.0272 3.8274 37.2199C4.35107 37.3713 4.79419 37.7429 5.07617 38.2246C4.71362 38.4448 4.35107 38.665 3.9751 38.8715C3.78711 38.5962 3.46485 38.4035 3.12916 38.4586C2.79347 38.4861 2.49806 38.7476 2.41749 39.0917C2.25636 39.6009 2.67262 40.1928 3.1963 40.1928C3.51856 40.2203 3.81397 40.0276 3.98853 39.7661C4.35107 39.9863 4.72705 40.2065 5.08959 40.413C4.72705 41.0323 4.08252 41.4452 3.38428 41.5003H3.11573C2.35036 41.4452 1.62526 40.9498 1.31643 40.2203C1.12844 39.8349 1.10159 39.3945 1.1553 38.9678C1.22243 38.376 1.5447 37.853 2.00124 37.5227Z" fill="#010101"/>
<path d="M20.7439 37.1391C20.1933 37.1391 19.6697 37.3869 19.2937 37.7998C18.9177 38.1852 18.7029 38.7357 18.6895 39.2862C18.6895 39.7955 18.8506 40.2909 19.1728 40.6763C19.522 41.1305 20.0456 41.4058 20.5962 41.4746H21.0393C21.5898 41.392 22.1269 41.1167 22.476 40.6626C22.8386 40.2221 22.9997 39.6303 22.9326 39.0522C22.852 37.9925 21.8987 37.0841 20.8513 37.1254C20.811 37.1391 20.7842 37.1391 20.7439 37.1391ZM20.7976 38.5155C21.1467 38.5017 21.4958 38.7632 21.5764 39.1211C21.7241 39.6303 21.2407 40.1808 20.7305 40.0983C20.3813 40.057 20.0859 39.7542 20.0591 39.3963C20.0188 39.0385 20.2471 38.6806 20.5693 38.5705C20.6365 38.5292 20.717 38.5155 20.7976 38.5155Z" fill="#010101"/>
<path d="M25.4067 37.1357C25.2858 37.1357 25.1515 37.1495 25.0307 37.1633C24.4936 37.2596 24.0102 37.5899 23.6879 38.0441C23.3522 38.5396 23.218 39.1727 23.3522 39.7645C23.4597 40.3151 23.7953 40.8105 24.2653 41.1271C24.5473 41.3336 24.883 41.4299 25.2187 41.485H25.6484C26.2258 41.4024 26.7897 41.0996 27.1388 40.6041C27.5148 40.0949 27.6357 39.4067 27.5014 38.7873C27.3671 38.2093 26.9911 37.7 26.4943 37.411C26.1586 37.2183 25.7826 37.1357 25.4067 37.1357ZM25.4335 38.5121C25.8363 38.5121 26.2123 38.8699 26.1989 39.2828C26.2526 39.7783 25.7289 40.2187 25.259 40.0811C24.8561 39.9985 24.5607 39.5306 24.6816 39.1177C24.7487 38.8286 24.9904 38.5947 25.259 38.5396C25.3127 38.5121 25.3798 38.5121 25.4335 38.5121Z" fill="#010101"/>
<path d="M54.9184 37.124C54.1128 37.124 53.3205 37.6195 52.9983 38.3765C52.6894 39.0371 52.7431 39.8492 53.1325 40.4685C53.4817 41.0466 54.0993 41.4044 54.7439 41.487H55.1198C55.6167 41.4182 56.0866 41.2117 56.4357 40.8401C56.758 40.496 56.9728 40.0419 57.04 39.5601C57.1071 39.0647 56.9728 38.5554 56.7177 38.1287C56.382 37.592 55.8046 37.2066 55.1735 37.1378C55.093 37.124 54.999 37.124 54.9184 37.124ZM54.8916 38.5141C55.2675 38.5004 55.6435 38.7894 55.6972 39.1748C55.8046 39.6702 55.3212 40.1795 54.8378 40.0831C54.4619 40.0281 54.153 39.6702 54.1799 39.2711C54.1665 38.9683 54.3813 38.6793 54.6499 38.5554C54.717 38.5279 54.7976 38.5141 54.8916 38.5141Z" fill="#010101"/>
<path d="M8.47288 37.2217C7.78807 37.2217 7.11668 37.2217 6.43188 37.2217C6.01562 38.6118 5.58593 40.0156 5.15625 41.4057C5.63964 41.4057 6.12304 41.4057 6.60643 41.4057C6.67357 41.1718 6.72728 40.9378 6.80785 40.7038C7.23753 40.7038 7.68065 40.69 8.11033 40.7038C8.20432 40.924 8.23118 41.1718 8.31174 41.4057C8.79514 41.4057 9.26511 41.4057 9.7485 41.4057C9.31882 40.0019 8.90256 38.6118 8.47288 37.2217ZM7.45238 38.364C7.58665 38.7907 7.7075 39.2311 7.82835 39.6578C7.58665 39.6578 7.34495 39.6578 7.10326 39.6578C7.21068 39.2311 7.33153 38.8045 7.45238 38.364Z" fill="#010101"/>
<path d="M10.1504 37.22V41.404C10.6069 41.404 11.05 41.404 11.5066 41.404C11.5066 40.9911 11.5066 40.592 11.5066 40.1791C11.6543 40.1791 11.802 40.1791 11.9497 40.1791C12.1511 40.592 12.3525 40.9911 12.5539 41.404C13.0508 41.404 13.561 41.404 14.0578 41.404C13.8027 40.9361 13.5207 40.4957 13.2656 40.0277C13.3193 39.9589 13.3999 39.9314 13.467 39.8763C13.843 39.601 14.0981 39.1193 14.0578 38.6376C14.0578 37.8944 13.3999 37.2475 12.6748 37.22C11.8423 37.2062 10.9963 37.22 10.1504 37.22ZM11.9363 38.4312C12.084 38.4312 12.2182 38.4312 12.366 38.4312C12.5539 38.4174 12.7285 38.6101 12.7016 38.8028C12.7016 38.9817 12.5405 39.1468 12.366 39.1331C12.0705 39.1331 11.7886 39.1331 11.4932 39.1331C11.4932 38.8991 11.4932 38.6651 11.4932 38.4312C11.6543 38.4312 11.802 38.4312 11.9363 38.4312Z" fill="#010101"/>
<path d="M14.4336 38.4329C14.447 38.02 14.4336 37.6209 14.4336 37.208C15.7898 37.208 17.1594 37.208 18.5156 37.208C18.5156 37.6071 18.5156 38.02 18.5156 38.4192C18.0859 38.4192 17.6562 38.4192 17.2265 38.4192C17.2265 39.4101 17.2265 40.3873 17.2265 41.3783C16.7163 41.3783 16.2195 41.3783 15.7092 41.3783C15.7092 40.3873 15.7092 39.4101 15.7092 38.4192C15.2795 38.4329 14.8633 38.4329 14.4336 38.4329Z" fill="#010101"/>
<path d="M27.9688 37.2217C28.4253 37.2217 28.8684 37.2217 29.3249 37.2217C29.7815 37.7997 30.2246 38.3916 30.6946 38.9559C30.708 38.3778 30.6946 37.7997 30.6946 37.2217C31.1511 37.2217 31.5942 37.2217 32.0508 37.2217C32.0508 38.6118 32.0508 40.0156 32.0508 41.4057C31.6076 41.4057 31.1511 41.4057 30.708 41.4057C30.238 40.8277 29.7949 40.2358 29.3384 39.6578C29.3115 40.2358 29.3249 40.8139 29.3249 41.4057C28.8818 41.4057 28.4253 41.4057 27.9822 41.4057C27.9687 40.0019 27.9688 38.6118 27.9688 37.2217Z" fill="#010101"/>
<path d="M34.8027 37.2218C35.2593 37.2218 35.7024 37.2218 36.1589 37.2218C36.6155 37.7998 37.0586 38.3917 37.5285 38.956C37.542 38.3779 37.5285 37.7998 37.5285 37.208C37.9717 37.208 38.4282 37.208 38.8713 37.208C38.8713 38.5981 38.8713 39.9882 38.8713 41.3921C38.4282 41.3921 37.9717 41.3921 37.5285 41.3921C37.0586 40.814 36.6155 40.2222 36.1589 39.6441C36.1589 40.2222 36.1589 40.814 36.1589 41.3921C35.7158 41.3921 35.2593 41.3921 34.8162 41.3921C34.8027 40.002 34.8027 38.6119 34.8027 37.2218Z" fill="#010101"/>
<path d="M39.4648 37.2217C40.6465 37.2217 41.8415 37.2217 43.0232 37.2217C43.0232 37.5107 43.0232 37.8135 43.0232 38.1025C43.0232 38.2126 43.0097 38.3227 43.0097 38.4329C42.2712 38.4329 41.5461 38.4329 40.8076 38.4329C40.8076 38.5567 40.821 38.6806 40.821 38.8045C41.4387 38.8045 42.0564 38.8045 42.674 38.8045C42.674 39.1485 42.674 39.4926 42.674 39.8367C42.0564 39.8367 41.4253 39.8367 40.8076 39.8367C40.8076 39.9743 40.8076 40.1257 40.8076 40.2771C41.5461 40.2909 42.2846 40.2771 43.0232 40.2771C43.0232 40.4423 43.0232 40.6212 43.0232 40.7864C43.0232 40.9928 43.0232 41.1855 43.0232 41.392C41.8415 41.392 40.6465 41.392 39.4648 41.392C39.4648 40.0019 39.4783 38.6118 39.4648 37.2217Z" fill="#010101"/>
<path d="M43.4785 37.2217C44.8481 37.2217 46.2043 37.2217 47.5739 37.2217C47.5739 37.6208 47.5739 38.0337 47.5739 38.4329C47.1443 38.4329 46.7146 38.4329 46.2983 38.4329C46.2983 39.4238 46.2983 40.4148 46.2983 41.392C45.7881 41.392 45.2912 41.392 44.781 41.392C44.781 40.401 44.781 39.4238 44.781 38.4329C44.3513 38.4191 43.9216 38.4466 43.4919 38.4191C43.4785 38.02 43.4785 37.6208 43.4785 37.2217Z" fill="#010101"/>
<path d="M47.9082 37.2217C48.3647 37.2217 48.8213 37.2217 49.2778 37.2217C49.3852 37.8273 49.4927 38.4466 49.6269 39.0522C49.8552 38.4879 50.0835 37.9236 50.3118 37.3731C50.54 37.9374 50.7549 38.5017 50.9966 39.0522C51.1174 38.4466 51.2114 37.8273 51.3457 37.2217C51.8022 37.2217 52.2453 37.2217 52.7019 37.2217C52.4467 38.6118 52.1782 40.0019 51.9231 41.392C51.5471 41.392 51.1711 41.392 50.7951 41.392C50.634 41.0204 50.4729 40.635 50.3118 40.2634C50.1372 40.635 49.9895 41.0204 49.8149 41.392C49.439 41.392 49.0764 41.392 48.7004 41.392C48.4185 40.0156 48.1768 38.6118 47.9082 37.2217Z" fill="#010101"/>
<path d="M58.6789 37.2224C58.2761 37.2224 57.8733 37.2224 57.457 37.2224C57.457 38.6125 57.457 40.0026 57.457 41.4064C57.9136 41.4064 58.3701 41.4064 58.8132 41.4064C58.8132 40.9935 58.8132 40.5806 58.8132 40.1677C58.9609 40.1677 59.1086 40.1677 59.2429 40.1677C59.4309 40.5806 59.6457 40.9798 59.8337 41.3927C60.344 41.3927 60.8408 41.3927 61.351 41.3927C61.0825 40.9247 60.8005 40.4705 60.5454 40.0026C60.9751 39.7824 61.2705 39.3419 61.351 38.8602C61.351 38.7501 61.351 38.64 61.351 38.5299C61.2973 38.2271 61.1899 37.9381 60.9885 37.7179C60.7065 37.4013 60.2903 37.2086 59.874 37.2224C59.4846 37.2224 59.0818 37.2224 58.6789 37.2224ZM58.8267 38.4335C59.1221 38.4335 59.404 38.4335 59.6994 38.4335C59.9143 38.4198 60.1023 38.695 60.0083 38.9015C59.9546 39.0254 59.8337 39.1355 59.6994 39.1355C59.404 39.1355 59.1221 39.1355 58.8267 39.1355C58.8267 38.9015 58.8267 38.6675 58.8267 38.4335Z" fill="#010101"/>
<path d="M61.8066 41.3912C61.8066 40.0011 61.8066 38.611 61.8066 37.2071C62.2632 37.2071 62.7197 37.2071 63.1763 37.2071C63.1763 37.6613 63.1628 38.1017 63.1763 38.5559C63.5254 38.1155 63.8476 37.6475 64.1968 37.1934C64.7741 37.1934 65.3515 37.1934 65.9289 37.1934C65.3918 37.854 64.8816 38.5284 64.3579 39.189C64.8547 39.9323 65.4187 40.648 65.9424 41.3774C65.365 41.3774 64.7876 41.3774 64.1968 41.3774C63.8611 40.8544 63.5254 40.3452 63.1897 39.8222C63.1763 40.3452 63.1897 40.8544 63.1897 41.3774C62.7197 41.3912 62.2632 41.3912 61.8066 41.3912Z" fill="#010101"/>
<path d="M66.5605 40.2744C66.856 40.2744 67.1648 40.2744 67.4602 40.2744C67.4602 40.3295 67.4602 40.3983 67.4602 40.4533C67.3528 40.4533 67.2454 40.4533 67.1379 40.4533C67.0977 40.7699 67.1245 41.0864 67.1111 41.403C67.0439 41.403 66.9634 41.403 66.8962 41.403C66.8962 41.0864 66.8962 40.7699 66.8962 40.4533C66.7888 40.4533 66.6814 40.4533 66.5605 40.4533C66.574 40.3983 66.5605 40.3295 66.5605 40.2744Z" fill="#010101"/>
<path d="M67.6074 40.2744C67.7148 40.2744 67.8223 40.2744 67.9431 40.2744C68.0237 40.5772 68.0774 40.88 68.1714 41.1828C68.2385 40.88 68.2922 40.5772 68.3728 40.2744C68.4802 40.2744 68.5876 40.2744 68.7085 40.2744V41.403C68.6548 41.403 68.5608 41.403 68.5071 41.403C68.5071 41.0864 68.5205 40.7837 68.4936 40.4671C68.3862 40.7699 68.3459 41.0864 68.2654 41.403C68.2117 41.403 68.1042 41.403 68.0505 41.403C67.97 41.1002 67.9163 40.7837 67.8357 40.4671C67.8088 40.7699 67.8223 41.0864 67.8223 41.3892C67.7551 41.3892 67.688 41.3892 67.6208 41.3892C67.6074 41.0314 67.6074 40.646 67.6074 40.2744Z" fill="#010101"/>
</svg>
