<svg width="180" height="42" viewBox="0 0 180 42" fill="none" xmlns="http://www.w3.org/2000/svg">
<path d="M58.9721 29.9226L52.9614 13.1875C52.8837 12.9546 52.7695 12.6486 52.7695 12.3837C52.7695 11.6575 53.3816 10.9678 54.2631 10.9678C55.0304 10.9678 55.5283 11.4702 55.7566 12.1918L60.7351 26.6112L65.7502 12.1507C65.9785 11.4656 66.4398 10.9678 67.2026 10.9678H67.3579C68.1618 10.9678 68.6642 11.4702 68.8925 12.1507L73.8665 26.6112L78.9272 12.1142C79.119 11.5022 79.5392 10.9678 80.3431 10.9678C81.1469 10.9678 81.7955 11.6163 81.7955 12.3471C81.7955 12.612 81.6813 12.9226 81.6037 13.1556L75.5519 29.9272C75.2413 30.8041 74.6292 31.2608 73.9441 31.2608H73.8254C73.0626 31.2608 72.4871 30.8041 72.2131 29.9272L67.2802 15.7042L62.3017 29.9272C62.0368 30.8041 61.4568 31.2608 60.694 31.2608H60.6164C59.8901 31.2608 59.2781 30.8041 58.9721 29.9272" fill="#727175"/>
<path d="M102.783 12.4249C102.783 11.6164 103.432 10.9268 104.236 10.9268C105.081 10.9268 105.734 11.5753 105.734 12.4249V15.823C107.191 12.5254 110.42 10.9679 112.562 10.9679C113.444 10.9679 114.024 11.621 114.024 12.4614C114.024 13.3018 113.485 13.8408 112.717 13.9595C108.881 14.4208 105.734 17.2938 105.734 23.0167V29.74C105.734 30.5439 105.122 31.2335 104.277 31.2335C103.432 31.2335 102.783 30.5804 102.783 29.74V12.4249Z" fill="#727175"/>
<path d="M123.5 31.4166C118.161 31.4166 113.804 27.2785 113.804 21.2038V21.1262C113.804 15.4763 117.75 10.918 123.126 10.918C128.872 10.918 132.142 15.659 132.142 20.8658C132.142 21.6606 131.498 22.2315 130.79 22.2315H116.736C117.142 26.4838 120.111 28.8725 123.573 28.8725C125.98 28.8725 127.743 27.9271 129.173 26.5934C129.397 26.4061 129.662 26.2554 130 26.2554C130.708 26.2554 131.279 26.8263 131.279 27.5114C131.279 27.8494 131.133 28.192 130.822 28.4569C128.981 30.2382 126.803 31.4166 123.496 31.4166M129.246 20.062C128.945 16.4948 126.912 13.3844 123.044 13.3844C119.659 13.3844 117.101 16.2299 116.731 20.062H129.242H129.246Z" fill="#727175"/>
<path d="M81.8454 25.2733V25.1956C81.8454 21.0301 85.2847 18.8104 90.2951 18.8104C92.8164 18.8104 94.6113 19.1575 96.3789 19.6508V18.9611C96.3789 15.4031 94.1911 13.567 90.487 13.567C88.4956 13.567 87.34 13.8227 85.883 14.4713C85.6912 14.549 85.4993 14.5855 85.3486 14.5855C84.6589 14.5855 84.0423 14.01 84.0423 13.3249C84.0423 12.7128 84.3118 12.3383 84.8508 12.0962C86.7965 11.2513 88.2626 10.9727 90.7884 10.9727C93.5791 10.9727 95.7212 11.6943 97.1737 13.1513C98.5119 14.4896 99.2016 16.4033 99.2016 18.9245V29.8361C99.2016 30.6765 98.5896 31.2886 97.7811 31.2886C96.9727 31.2886 96.3744 30.6765 96.3744 29.9092V28.0229C94.995 29.8224 92.7022 31.4302 89.2264 31.4302C85.5541 31.4302 81.8408 29.3246 81.8408 25.2733M96.4109 23.7432V21.834C94.9585 21.4138 93.0036 20.989 90.5966 20.989C86.8924 20.989 84.8233 22.6013 84.8233 25.0814V25.1591C84.8233 27.6438 87.1162 29.0962 89.7927 29.0962C93.4238 29.0962 96.4063 26.8764 96.4063 23.7432" fill="#727175"/>
<path d="M5.39619 12.2055C4.74761 10.7896 3.14901 10.141 1.65546 10.8124C0.161915 11.4747 -0.390744 13.1327 0.285236 14.5577L6.56088 28.1961C7.54744 30.3336 8.58882 31.4572 10.5391 31.4572C12.6219 31.4572 13.5353 30.2331 14.5173 28.1961C14.5173 28.1961 19.9937 16.2751 20.0439 16.1563C20.1033 16.0284 20.2769 15.6448 20.8341 15.6448C21.3045 15.6494 21.7019 16.0239 21.7019 16.5263V28.1869C21.7019 29.9819 22.6976 31.4572 24.6159 31.4572C26.5342 31.4572 27.5665 29.9819 27.5665 28.1869V18.6502C27.5665 16.8095 28.8865 15.6174 30.6815 15.6174C32.4765 15.6174 33.6731 16.8506 33.6731 18.6502V28.1869C33.6731 29.9819 34.6734 31.4572 36.5871 31.4572C38.5009 31.4572 39.5423 29.9819 39.5423 28.1869V18.6502C39.5423 16.8095 40.8577 15.6174 42.6527 15.6174C44.4477 15.6174 45.6443 16.8506 45.6443 18.6502V28.1869C45.6443 29.9819 46.64 31.4572 48.5584 31.4572C50.4767 31.4572 51.5135 29.9819 51.5135 28.1869V17.3302C51.5135 13.3382 48.3072 10.543 44.4477 10.543C40.5882 10.543 38.1766 13.2149 38.1766 13.2149C36.8932 11.5524 35.1256 10.5475 32.1293 10.5475C28.9687 10.5475 26.2054 13.2149 26.2054 13.2149C24.9174 11.5524 22.7341 10.5475 20.9254 10.5475C18.1256 10.5475 15.9013 11.7762 14.5493 14.882L10.5391 24.3275L5.39619 12.2055Z" fill="#727175"/>
<path d="M132.38 13.3886V13.3704C132.38 12.0367 133.462 10.9131 134.823 10.9131C136.185 10.9131 137.272 12.023 137.272 13.3567V13.3704C137.272 14.7086 136.194 15.8322 134.823 15.8322C133.453 15.8322 132.38 14.7269 132.38 13.3886ZM136.801 13.3704C136.801 12.2696 135.956 11.3653 134.823 11.3653C133.691 11.3653 132.841 12.2787 132.841 13.3704V13.3841C132.841 14.4802 133.691 15.3755 134.823 15.3755C135.956 15.3755 136.801 14.462 136.801 13.3658" fill="#727175"/>
<path d="M133.892 12.4065C133.892 12.2604 134.006 12.1416 134.152 12.1416H134.97C135.276 12.1416 135.513 12.2284 135.659 12.3882C135.796 12.5161 135.869 12.708 135.869 12.9272V12.9363C135.869 13.3109 135.677 13.5392 135.394 13.658L135.755 14.0965C135.805 14.1604 135.837 14.2152 135.837 14.2929C135.837 14.4344 135.719 14.5349 135.591 14.5349C135.476 14.5349 135.399 14.4756 135.335 14.4025L134.828 13.7585H134.412V14.2746C134.412 14.4207 134.298 14.5349 134.152 14.5349C134.006 14.5349 133.892 14.4207 133.892 14.2746V12.4065ZM134.942 13.2926C135.198 13.2926 135.339 13.1647 135.339 12.9592V12.95C135.339 12.7308 135.189 12.612 134.938 12.612H134.417V13.2926H134.942Z" fill="#727175"/>
</svg>
