<svg fill="none" height="39" viewBox="0 0 200 39" width="200" xmlns="http://www.w3.org/2000/svg" xmlns:xlink="http://www.w3.org/1999/xlink"><linearGradient id="a" gradientUnits="userSpaceOnUse" x1="156.776" x2="203.579" y1="50.7403" y2="-14.6692"><stop offset="0" stop-color="#8930fd"/><stop offset=".0933682" stop-color="#4bc9fa"/><stop offset=".524666" stop-color="#ff02f0"/><stop offset=".973605" stop-color="#ffc800"/></linearGradient><linearGradient id="b" gradientUnits="userSpaceOnUse" x1="20.7168" x2="31.5279" y1="22.4591" y2=".808628"><stop offset="0" stop-color="#ff02f0"/><stop offset="1" stop-color="#ffc800"/></linearGradient><linearGradient id="c" gradientUnits="userSpaceOnUse" x1="6.49764" x2="13.2546" y1="31.2502" y2="17.7186"><stop offset="0" stop-color="#8930fd"/><stop offset="1" stop-color="#49ccf9"/></linearGradient><g fill="#191529"><path d="m68.1711 5.87009h-6.0721v25.23441h6.0721z"/><path clip-rule="evenodd" d="m49.8275 31.2158c-3.5795 0-6.5623-1.1569-8.9818-3.4709-2.4194-2.3471-3.6126-5.3553-3.6126-9.0247 0-3.7024 1.2263-6.7436 3.6457-9.12372 2.4526-2.4132 5.4355-3.60324 8.9819-3.60324 4.3747 0 8.2527 1.88423 10.5062 4.82636l-3.944 4.1321c-1.8893-2.0165-3.9439-3.0412-6.1645-3.0412-1.8892 0-3.4469.628-4.7395 1.9173-1.2595 1.2892-1.8891 2.909-1.8891 4.8594 0 1.8842.6296 3.471 1.8891 4.7602 1.2926 1.2562 2.8503 1.8843 4.7064 1.8843 2.4194 0 4.5405-1.0579 6.297-3.1405l4.1101 3.9338c-1.1268 1.4876-2.6518 2.7107-4.541 3.6694-1.8887.9587-3.977 1.4214-6.2639 1.4214z" fill-rule="evenodd"/><path clip-rule="evenodd" d="m77.2786 7.88889c0 1.81181-1.472 3.28051-3.2886 3.28051-1.8167 0-3.2893-1.4687-3.2893-3.28051 0-1.81174 1.4726-3.28045 3.2893-3.28045 1.8166 0 3.2886 1.46871 3.2886 3.28045zm-.2529 4.79451h-6.072v18.4212h6.072z" fill-rule="evenodd"/><path clip-rule="evenodd" d="m88.763 31.2489c-2.8833 0-5.2035-.8926-7.0261-2.6776-1.7899-1.7851-2.6851-4.0661-2.6851-6.8759s.8952-5.0908 2.7178-6.8759c1.8232-1.7851 4.1762-2.6776 7.0928-2.6776 3.8118 0 7.1588 1.8512 8.7165 5.3222l-4.6731 2.4462c-.928-1.5537-2.2202-2.3471-3.9107-2.3471-1.2262 0-2.2208.3967-3.016 1.1901-.7625.7934-1.1601 1.7851-1.1601 2.9421 0 2.4131 1.7565 4.1982 4.11 4.1982 1.6899 0 3.2476-.9256 3.9107-2.347l4.6731 2.7768c-1.591 3.0413-4.8719 4.9255-8.7498 4.9255z" fill-rule="evenodd"/><path clip-rule="evenodd" d="m105.11 5.87009h-6.0721v25.23441h6.0721v-6.424l.711-.6618 5.551 7.0858h7.063l-8.528-10.8864 8.101-7.5348h-7.419l-5.479 5.0964z" fill-rule="evenodd"/><path clip-rule="evenodd" d="m119.53 21.5689v-15.69881h6.326v15.34731c0 2.7438 1.603 4.066 3.921 4.066 2.285 0 3.922-1.3884 3.922-4.066v-15.34731h6.325v15.69881c0 7.2065-5.073 9.9172-10.247 9.9172-5.14 0-10.247-2.7107-10.247-9.9172z" fill-rule="evenodd"/><path clip-rule="evenodd" d="m153.686 31.6093c4.89 0 8.855-4.2931 8.855-9.5891 0-5.2959-3.965-9.5891-8.855-9.5891-1.994 0-3.833.7134-5.313 1.9171v-1.6647h-5.819v25.9915h5.819v-8.9827c1.48 1.2037 3.319 1.917 5.313 1.917zm-5.313-9.5792v-.0197c.005-2.3647 1.872-4.28 4.174-4.28 2.306 0 4.175 1.9206 4.175 4.2898s-1.869 4.2898-4.175 4.2898c-2.302 0-4.169-1.9152-4.174-4.2799z" fill-rule="evenodd"/></g><path d="m199.248 5.82484h-6.073v25.23446h6.073z" fill="url(#a)"/><path d="m184.696 31.0509h6.695l-9.171-25.20045h-6.067l-9.415 25.20045h6.73l1.534-4.6036h8.195zm-3.069-10.1279h-4.986l2.546-7.4681z" fill="url(#a)"/><path clip-rule="evenodd" d="m22.1288 1.06395c-.3342-1.1519366-2.0953-1.1519366-2.4295 0l-.473 1.63163c-1.0202 3.51552-2.4145 6.26161-6.2027 7.20818l-1.758.43934c-1.2414.3101-1.2414 1.9445 0 2.2546l1.758.4394c3.7882.9465 5.1825 3.6926 6.2027 7.2081l.473 1.6317c.3342 1.1519 2.0953 1.1519 2.4295 0l.4736-1.6317c1.0196-3.5155 2.4145-6.2616 6.2027-7.2081l1.758-.4394c1.2414-.3101 1.2414-1.9445 0-2.2546s-1.758-.43934-1.758-.43934c-3.7882-.94657-5.1831-3.69266-6.2027-7.20818z" fill="url(#b)" fill-rule="evenodd"/><path clip-rule="evenodd" d="m7.53656 17.6457c-.2005-.72-1.25716-.72-1.45766 0l-.28379 1.0198c-.61218 2.1972-1.44871 3.9135-3.72162 4.5051l-1.05482.2746c-.744863.1938-.744863 1.2153 0 1.4091l1.05482.2746c2.27291.5916 3.10944 2.3079 3.72162 4.5051l.28379 1.0198c.2005.7199 1.25716.7199 1.45766 0l.28416-1.0198c.61181-2.1972 1.44871-3.9135 3.72158-4.5051l1.0549-.2746c.7448-.1938.7448-1.2153 0-1.4091-.7449-.1938-1.0549-.2746-1.0549-.2746-2.27287-.5916-3.10977-2.3079-3.72158-4.5051z" fill="url(#c)" fill-rule="evenodd"/></svg>