<svg fill="none" height="292" viewBox="0 0 934 292" width="934" xmlns="http://www.w3.org/2000/svg" xmlns:xlink="http://www.w3.org/1999/xlink"><linearGradient id="clickup-brain-light-a" gradientUnits="userSpaceOnUse" x1="458.861" x2="664.947" y1="304.293" y2="-122.726"><stop offset=".154153" stop-color="#8930fd"/><stop offset=".271994" stop-color="#4bc9fa"/><stop offset=".524666" stop-color="#ff02f0"/><stop offset=".852312" stop-color="#ffc800"/></linearGradient><linearGradient id="clickup-brain-light-b" gradientUnits="userSpaceOnUse" x1="785.562" x2="803.691" y1="105.297" y2="69.0387"><stop offset="0" stop-color="#ff02f0"/><stop offset="1" stop-color="#ffc800"/></linearGradient><linearGradient id="clickup-brain-light-c" gradientUnits="userSpaceOnUse" x1="761.768" x2="773.099" y1="120.027" y2="97.3653"><stop offset="0" stop-color="#8930fd"/><stop offset="1" stop-color="#49ccf9"/></linearGradient><path d="m787.295 195.263h-21.725v-67.754h21.725z" fill="url(#clickup-brain-light-a)"/><path d="m735.511 127.509h20.375v67.754h-20.375v-5.892c-4.787 4.419-11.293 7.61-20.007 7.61-19.639 0-33.141-15.833-33.141-35.84 0-20.376 13.993-35.35 33.141-35.35 8.714 0 15.22 3.314 20.007 7.855zm-15.957 49.711c8.96 0 15.711-7.242 15.711-15.957 0-8.469-6.751-15.711-15.711-15.711-9.206 0-15.588 7.242-15.588 15.711 0 8.838 6.628 15.957 15.588 15.957z" fill="url(#clickup-brain-light-a)"/><g fill="#181818"><path d="m635.197 195.263v-67.754h20.743v8.347c4.419-6.997 11.047-10.188 18.043-10.188 2.578 0 7.696.614 10.396 1.841l-6.123 20.047c-1.633-.817-3.266-1.225-6.482-1.022s-14.974 4.91-14.974 19.516v29.213z"/><path d="m610.767 145.429c11.661 2.824 17.184 12.397 17.184 23.076 0 15.22-11.538 26.758-29.213 26.758h-44.555v-90.707h42.469c17.797 0 26.512 11.415 26.512 22.462 0 7.978-5.032 15.711-12.397 18.411zm-18.411-21.48h-15.711v15.343h14.729c6.873 0 9.328-4.05 9.328-7.732 0-3.928-2.946-7.611-8.346-7.611zm1.473 51.675c7.732 0 10.555-4.787 10.555-8.96 0-4.542-3.068-9.083-10.064-9.083h-17.675v18.043z"/><path d="m796.757 195.263v-67.754h21.111v9.451c3.069-5.891 10.802-11.292 21.235-11.292 13.379 0 26.144 8.96 26.144 27.985v41.61h-21.725v-35.841c0-8.96-4.542-13.993-11.906-13.993-7.733 0-13.257 5.769-13.257 14.607v35.227z"/><path d="m182.529 102.307h-22.282v92.84h22.282z"/><path clip-rule="evenodd" d="m115.216 195.557c-13.135 0-24.0808-4.257-32.9592-12.77-8.8783-8.635-13.2568-19.703-13.2568-33.203 0-13.622 4.5002-24.811 13.3784-33.567 8.9999-8.879 19.9456-13.257 32.9596-13.257 16.053 0 30.284 6.932 38.553 17.757l-14.473 15.202c-6.932-7.419-14.472-11.189-22.621-11.189-6.932 0-12.648 2.311-17.3916 7.054-4.6216 4.743-6.9323 10.703-6.9323 17.879 0 6.932 2.3107 12.77 6.9323 17.513 4.7436 4.622 10.4596 6.932 17.2706 6.932 8.878 0 16.661-3.892 23.107-11.554l15.082 14.473c-4.135 5.473-9.731 9.973-16.663 13.5-6.931 3.527-14.594 5.23-22.986 5.23z" fill-rule="evenodd"/><path clip-rule="evenodd" d="m215.95 109.734c0 6.666-5.402 12.07-12.068 12.07s-12.07-5.404-12.07-12.07c0-6.665 5.404-12.0689 12.07-12.0689s12.068 5.4039 12.068 12.0689zm-.928 17.64h-22.282v67.774h22.282z" fill-rule="evenodd"/><path clip-rule="evenodd" d="m258.092 195.679c-10.58 0-19.094-3.284-25.782-9.852-6.568-6.567-9.853-14.959-9.853-25.297s3.285-18.73 9.973-25.297c6.69-6.568 15.324-9.851 26.027-9.851 13.988 0 26.27 6.81 31.986 19.581l-17.148 8.999c-3.406-5.716-8.148-8.635-14.351-8.635-4.499 0-8.149 1.46-11.067 4.379-2.798 2.919-4.257 6.567-4.257 10.824 0 8.878 6.445 15.446 15.082 15.446 6.201 0 11.917-3.406 14.35-8.635l17.149 10.216c-5.839 11.189-17.878 18.122-32.109 18.122z" fill-rule="evenodd"/><path clip-rule="evenodd" d="m318.078 102.307h-22.281v92.84h22.281v-23.634l2.61-2.435 20.368 26.069h25.92l-31.293-40.052 29.727-27.721h-27.226l-20.106 18.75z" fill-rule="evenodd"/><path clip-rule="evenodd" d="m370.995 160.065v-57.758h23.212v56.464c0 10.095 5.882 14.96 14.39 14.96 8.383 0 14.39-5.108 14.39-14.96v-56.464h23.209v57.758c0 26.513-18.614 36.486-37.599 36.486-18.863 0-37.602-9.973-37.602-36.486z" fill-rule="evenodd"/><path clip-rule="evenodd" d="m496.331 197.005c17.946 0 32.495-15.795 32.495-35.28 0-19.484-14.549-35.279-32.495-35.279-7.315 0-14.064 2.624-19.496 7.053v-6.125h-21.353v95.626h21.353v-33.048c5.432 4.428 12.181 7.053 19.496 7.053zm-19.496-35.244v-.072c.02-8.7 6.869-15.747 15.318-15.747 8.462 0 15.32 7.066 15.32 15.783s-6.858 15.783-15.32 15.783c-8.449 0-15.298-7.047-15.318-15.747z" fill-rule="evenodd"/></g><path clip-rule="evenodd" d="m787.925 69.4476c-.559-1.9301-3.506-1.9301-4.066 0l-.791 2.7339c-1.707 5.8905-4.041 10.4918-10.38 12.0779l-2.941.7362c-2.078.5196-2.078 3.258 0 3.7776l2.941.7362c6.339 1.5861 8.673 6.1873 10.38 12.0776l.791 2.734c.56 1.93 3.507 1.93 4.066 0l.792-2.734c1.707-5.8903 4.041-10.4915 10.38-12.0776l2.942-.7362c2.077-.5196 2.077-3.258 0-3.7776-2.078-.5197-2.942-.7362-2.942-.7362-6.339-1.5861-8.673-6.1874-10.38-12.0779z" fill="url(#clickup-brain-light-b)" fill-rule="evenodd"/><path clip-rule="evenodd" d="m763.506 97.2313c-.335-1.2063-2.103-1.2063-2.439 0l-.475 1.7087c-1.024 3.682-2.424 6.557-6.227 7.549l-1.765.46c-1.247.325-1.247 2.036 0 2.361l1.765.46c3.803.991 5.203 3.867 6.227 7.549l.475 1.708c.336 1.207 2.104 1.207 2.439 0l.476-1.708c1.024-3.682 2.424-6.558 6.228-7.549l1.765-.46c1.246-.325 1.246-2.036 0-2.361-1.247-.325-1.765-.46-1.765-.46-3.804-.992-5.204-3.867-6.228-7.549z" fill="url(#clickup-brain-light-c)" fill-rule="evenodd"/></svg>
