<svg data-name="Layer 1" xmlns="http://www.w3.org/2000/svg" viewBox="0 0 882.59 291"><defs><linearGradient id="a" x1="110.22" y1="134.69" x2="201.65" y2="100.98" gradientUnits="userSpaceOnUse"><stop offset=".02" stop-color="#b02de9"/><stop offset=".8" stop-color="#6d00cc"/></linearGradient><linearGradient id="b" x1="29.97" y1="119.31" x2="128.26" y2="76.81" gradientUnits="userSpaceOnUse"><stop offset="0" stop-color="#f0f"/><stop offset=".18" stop-color="#e80df9"/><stop offset=".54" stop-color="#c024ed"/><stop offset=".73" stop-color="#b02de9"/></linearGradient><linearGradient id="c" x1="7.04" y1="150.59" x2="208.52" y2="76.41" gradientUnits="userSpaceOnUse"><stop offset=".02" stop-color="#f0f"/><stop offset=".09" stop-color="#e80df9"/><stop offset=".23" stop-color="#c024ed"/><stop offset=".3" stop-color="#b02de9"/><stop offset=".42" stop-color="#a42be3"/><stop offset=".63" stop-color="#8527d5"/><stop offset=".85" stop-color="#6021c3"/></linearGradient></defs><path d="M302.25 95v79.5a4.67 4.67 0 0 1-4.68 4.68h-34.35a4.68 4.68 0 0 1-4.68-4.68V48.94a4.68 4.68 0 0 1 4.68-4.68h34.35a4.67 4.67 0 0 1 4.68 4.68v9.89C310.89 48 323 41.29 340 41.29c15.91 0 29.67 6.47 38 18.62 10.25-12.15 24.82-18.62 42.63-18.62 30.22 0 51 17.81 51 51.8v81.39a4.67 4.67 0 0 1-4.68 4.68h-34.29a4.68 4.68 0 0 1-4.68-4.68v-72.21c0-14.84-8.36-22.13-19.69-22.13-9.45 0-17 5.94-21.32 14.84v79.5a4.67 4.67 0 0 1-4.68 4.68h-34.35a4.68 4.68 0 0 1-4.68-4.68v-72.21c0-14.84-8.36-22.13-19.69-22.13-9.72 0-17 5.94-21.32 14.86ZM529.13 181.86c-25.36 0-46.68-16.73-46.68-42.63 0-23.74 15.65-34.81 44.79-42.36l37.24-9.71c-1.08-8.91-8.1-13.22-19.43-13.22-10 0-17.26 3.84-20.59 11.52a4.75 4.75 0 0 1-5.46 2.86l-29.52-7a4.7 4.7 0 0 1-3.33-6.17c8.47-22.92 32-34.93 60.49-34.93 38.31 0 60.44 18.08 60.44 49.91v84.36a4.68 4.68 0 0 1-4.68 4.68h-32.54a4.68 4.68 0 0 1-4.68-4.57l-.16-7-.27.27c-11.07 9.4-21.86 13.99-35.62 13.99Zm11.06-33.73c5.67 0 10-1.61 16.46-5.39l7.56-4.59.27-21.85-19.43 5.39c-13.22 3.78-19.16 7-19.16 14.57 0 8.37 7.29 11.87 14.3 11.87ZM676.89 115.49l-13.22 12.14v46.85a4.67 4.67 0 0 1-4.68 4.68h-33.54a4.68 4.68 0 0 1-4.68-4.68V4.68A4.69 4.69 0 0 1 625.45 0H659a4.68 4.68 0 0 1 4.68 4.68v76.81l39.13-36a4.72 4.72 0 0 1 3.19-1.23h41.41a4.68 4.68 0 0 1 3.15 8.14l-40.21 36.65 45.82 83.17a4.68 4.68 0 0 1-4.1 6.94h-39.15a4.69 4.69 0 0 1-4.15-2.52Z"/><path d="M819.22 182.13c-37.5 0-71.77-23.47-71.77-71 0-44.79 32.92-70.69 69.07-70.69 37.51 0 64.76 26.17 65.84 67.45.12 4.36.19 7.4.23 9.56a4.67 4.67 0 0 1-4.68 4.74h-87.29c1.35 16.19 14.3 26.44 30.76 26.44 11.71 0 21.31-4.87 28-13.67a4.63 4.63 0 0 1 6.27-1l21.81 14.6a4.73 4.73 0 0 1 1.24 6.59c-11.63 17.2-30.9 26.98-59.48 26.98Zm-27.79-86.34h47.22c-.27-15.38-11.6-22.12-23.47-22.12-11.07 0-22.4 6.47-23.75 22.12ZM266.77 243.62v32h-6.19v-32h-5.88v-5.43h5.88v-6c0-4 1-7 3.06-8.87a11.08 11.08 0 0 1 7.87-2.9c3.9 0 7.34 1 9.71 3.82l-4.05 4A7 7 0 0 0 272 226c-2.68 0-5.2 1.37-5.2 5.88v6.27h9v5.43ZM276.49 256.76c0-11.62 7.8-19.49 18-19.49 10.32 0 18 7.87 18 19.49 0 11.46-7.64 19.64-18 19.64s-18-8.18-18-19.64Zm29.5 0c0-8.56-5-13.76-11.54-13.76s-11.54 5.05-11.54 13.76 4.9 13.91 11.54 13.91S306 265.4 306 256.76ZM324.92 249.65v26h-6.26v-37.46h6.26v4.43a9.06 9.06 0 0 1 7.95-5 10.38 10.38 0 0 1 6.19 1.84l-2.67 5.73a7.56 7.56 0 0 0-4.59-1.53c-3.51.03-5.88 3.17-6.88 5.99ZM349.3 251.1v24.54H343v-37.45h6.26v4.43a12.14 12.14 0 0 1 10.47-5.27c5.13 0 9.1 2.14 11.24 6.49a14.07 14.07 0 0 1 12.3-6.49c7.88 0 13.07 5 13.07 15.36v22.93h-6.26v-22.39c0-6.58-2.6-10.17-7.95-10.17-4.43 0-8 3.06-9.33 8.18v24.38h-6.26v-22.39c0-6.58-2.6-10.17-7.95-10.17-4.39 0-7.99 3.06-9.29 8.02ZM420.39 276.33c-10.17 0-18.11-7.49-18.11-19.8 0-11.69 7.56-19.26 17.57-19.26 9.86 0 16 6.57 16.67 17 .07 1.14.15 2.44.15 3.43h-28.05c.23 8.18 5.58 13.15 12 13.15a12.72 12.72 0 0 0 11-6.11l4.59 3.28c-2.83 4.98-8.79 8.31-15.82 8.31Zm-11.62-23.85h21.4c-.76-6.57-5.27-9.78-10.39-9.78-5.51 0-10.32 3.36-11.01 9.78ZM449.1 249.65v26h-6.27v-37.46h6.27v4.43a9.06 9.06 0 0 1 7.95-5 10.43 10.43 0 0 1 6.19 1.84l-2.67 5.73a7.56 7.56 0 0 0-4.59-1.53c-3.52.03-5.88 3.17-6.88 5.99ZM467.21 220.76h6.27v54.88h-6.27ZM481.84 290.16l9.1-20.79-13.45-31.18h6.64l10.17 24.15 9.86-24.15h6.49l-22.39 52ZM533 222.14h6.65v53.5H533ZM555.48 251.18v24.46h-6.26v-37.45h6.26v5a12.47 12.47 0 0 1 11.16-5.88c8.33 0 13.83 5 13.83 15.36v22.93h-6.26v-22.35c0-6.81-3.13-10.17-8.71-10.17-4.59 0-8.41 3.06-10.02 8.1ZM600 276.33c-5.73 0-10.09-3-10.09-10.63v-22.08H584v-5.43h5.88v-11.08h6.19v11.08h11.77v5.43h-11.79v21.7c0 4.13 2.14 5.43 4.51 5.43a6.17 6.17 0 0 0 4.59-2.14l3.67 3.82a11.18 11.18 0 0 1-8.82 3.9ZM627.19 276.33c-10.16 0-18.11-7.49-18.11-19.8 0-11.69 7.57-19.26 17.58-19.26s16 6.57 16.66 17c.08 1.14.15 2.44.15 3.43h-28.05c.23 8.18 5.58 13.15 12 13.15a12.72 12.72 0 0 0 11-6.11l4.58 3.28c-2.81 4.98-8.77 8.31-15.81 8.31Zm-11.61-23.85H637c-.77-6.57-5.28-9.78-10.4-9.78-5.52 0-10.34 3.36-11.02 9.78ZM663.41 291h-3.06c-8.78 0-15.13-3.44-15.13-10.09 0-4.43 3.21-7.49 8-8.94a5.14 5.14 0 0 1-2.83-4.51c0-2.45 1.45-4.28 3.9-5.5a12.55 12.55 0 0 1-6.88-11.46c0-8 6.65-13.15 14.52-13.15 3.29 0 5 .84 10.47.84h7.64v5.12h-6.26a12 12 0 0 1 2.44 7.19c0 8-6.42 13.22-14.29 13.22-4.51 0-5.5 2-5.5 3.2 0 1.92 1.68 2.76 4.58 2.91l6.27.31c7.87.38 11.46 4.66 11.46 10.08.03 6.42-5.74 10.78-15.33 10.78Zm0-5.27c6 0 9.17-2.07 9.17-5.28s-2.6-5.19-7.87-5.19h-4c-5.89.15-9.33 1.6-9.33 5.34 0 3.44 3.67 5.13 9.1 5.13ZM662 258.44c4.74 0 8.25-3.13 8.25-7.94s-3.51-7.88-8.25-7.88-8.41 3.14-8.41 7.88 3.56 7.94 8.41 7.94ZM691 249.65v26h-6.27v-37.46H691v4.43a9.06 9.06 0 0 1 8-5 10.43 10.43 0 0 1 6.19 1.84l-2.68 5.73a7.53 7.53 0 0 0-4.58-1.53c-3.56.03-5.93 3.17-6.93 5.99ZM704.88 256.76c0-11.62 7.79-19.49 18-19.49s18 7.87 18 19.49c0 11.46-7.64 19.64-18 19.64s-18-8.18-18-19.64Zm29.5 0c0-8.56-5-13.76-11.54-13.76s-11.54 5.05-11.54 13.76 4.89 13.91 11.54 13.91 11.54-5.27 11.54-13.91ZM753.31 251.1v24.54H747v-37.45h6.27v4.43a12.12 12.12 0 0 1 10.47-5.27c5.12 0 9.09 2.14 11.24 6.49a14 14 0 0 1 12.3-6.49c7.87 0 13.07 5 13.07 15.36v22.93h-6.27v-22.39c0-6.58-2.6-10.17-8-10.17-4.43 0-8 3.06-9.32 8.18v24.38h-6.27v-22.39c0-6.58-2.6-10.17-8-10.17-4.29 0-7.88 3.06-9.18 8.02ZM818.82 276.25c-6.19 0-12.53-4.05-12.53-11.46 0-6.27 4.28-9.71 13.75-12.23l10.25-2.68c-.38-4.43-4-6.88-8.72-6.88a10.5 10.5 0 0 0-9.78 5.66l-5.2-2.83c2.83-5.65 8.95-8.56 15.52-8.56 8 0 14.37 4 14.37 13.45v24.92h-6.12v-4.13l-.76.61c-3.6 2.88-6.8 4.13-10.78 4.13Zm9.86-9.17 1.61-1.23v-10.62l-8.1 2.14c-6.65 1.76-9.63 3.36-9.63 7.26 0 4.05 3.66 6.19 7.1 6.19 2.98 0 5.34-.91 9.02-3.74ZM856.11 276.33c-5.73 0-10.08-3-10.08-10.63v-22.08h-5.89v-5.43H846v-11.08h6.19v11.08H864v5.43h-11.78v21.7c0 4.13 2.13 5.43 4.5 5.43a6.17 6.17 0 0 0 4.59-2.14l3.67 3.82a11.17 11.17 0 0 1-8.87 3.9Z"/><path d="M189.89 178.77H156a4.68 4.68 0 0 1-4.68-4.68V49a4.69 4.69 0 0 1 4.68-4.66h33.88a4.68 4.68 0 0 1 4.69 4.66v125.09a4.67 4.67 0 0 1-4.68 4.68Z" style="fill:url(#a)"/><path d="M32.82 179.24 2.55 164a4.68 4.68 0 0 1-2.08-6.28L56.63 46a4.68 4.68 0 0 1 6.28-2.08l30.28 15.21a4.68 4.68 0 0 1 2.08 6.28L39.1 177.16a4.68 4.68 0 0 1-6.28 2.08Z" style="fill:url(#b)"/><path d="m122.23 176.72 24-121.81a4.68 4.68 0 0 0-3.66-5.49l-33.21-6.71a4.69 4.69 0 0 0-5.52 3.68l-24 121.82a4.68 4.68 0 0 0 3.67 5.49l33.2 6.7a4.67 4.67 0 0 0 5.52-3.68Z" style="fill:url(#c)"/></svg>