<svg width="34" height="42" viewBox="0 0 34 42" fill="none" xmlns="http://www.w3.org/2000/svg">
<path fill-rule="evenodd" clip-rule="evenodd" d="M27.6914 7.40589C28.1576 7.42295 28.6225 7.34578 29.0567 7.17922C29.4909 7.01266 29.8854 6.76036 30.2154 6.43807C30.5453 6.11578 30.8036 5.73038 30.974 5.3061C31.1445 4.88182 31.2234 4.42767 31.206 3.9722C31.2285 3.51387 31.1532 3.05599 30.985 2.62754C30.8168 2.19908 30.5594 1.80951 30.2289 1.48341C29.8984 1.15731 29.5022 0.901866 29.0653 0.733253C28.6286 0.56464 28.1606 0.486519 27.6913 0.503871C27.219 0.481541 26.7472 0.556 26.3062 0.722417C25.8651 0.888834 25.4646 1.14355 25.1302 1.47016C24.7959 1.79677 24.5351 2.1881 24.3648 2.61904C24.1945 3.04991 24.1183 3.51087 24.1412 3.97227C24.1234 4.43081 24.2033 4.88797 24.376 5.31474C24.5486 5.7415 24.81 6.12859 25.1438 6.45139C25.4776 6.7742 25.8764 7.02576 26.3149 7.19013C26.7534 7.35442 27.2222 7.42786 27.6914 7.40589ZM27.6914 1.82525C28.87 1.82525 29.6369 2.6681 29.6369 3.9618C29.6369 5.2555 28.8629 6.09835 27.6914 6.09835C26.5199 6.09835 25.7388 5.25551 25.7388 3.9722C25.7388 2.68889 26.5056 1.82525 27.6914 1.82525ZM13.6009 6.03239H16.5014L17.041 7.26364H18.6812L15.589 0.649495H14.556L11.446 7.26371H13.0649L13.6009 6.03239ZM16.0115 4.89126L15.0653 2.71722L14.1193 4.89126H16.0115ZM6.73501 6.27861L5.02031 3.67729V7.26364H3.4653V0.645981H4.55875L7.13257 4.57219L9.70998 0.645981H10.8034V7.26364H9.24843V3.67729L7.53372 6.27861H6.73501ZM20.0728 7.26364H21.6491V4.91205L24.2585 0.645981H22.5438L20.8716 3.53518L19.1996 0.645981H17.4636L20.0729 4.91213L20.0728 7.26364ZM7.62253 16.5797V9.96204H9.20234V15.3033H12.6496V16.5797H7.62253ZM15.3973 9.96204H13.8211V16.5763H15.3973V9.96204ZM5.35761 14.3496L6.74573 14.8837C6.21673 16.0457 5.02038 16.722 3.5577 16.7323C1.26079 16.7323 -0.304855 14.9982 0.0502106 12.6432C0.189074 11.9515 0.53807 11.3169 1.05171 10.8219C1.56527 10.3269 2.21965 9.99469 2.92941 9.86847C4.66187 9.6396 6.13167 10.3575 6.7138 11.6997L5.32569 12.2339C5.18196 11.8942 4.9342 11.6062 4.61646 11.4094C4.29871 11.2125 3.92648 11.1166 3.55066 11.1344C2.35784 11.1344 1.58393 11.9877 1.58393 13.2814C1.58393 14.5751 2.35072 15.4178 3.55066 15.4178C3.92603 15.4332 4.29766 15.3399 4.61908 15.15C4.9405 14.96 5.19732 14.6815 5.35761 14.3496ZM26.2074 9.96204H24.6312V16.5763H26.2074V9.96204ZM31.8722 15.1309C32.1912 14.9462 32.4482 14.6746 32.6119 14.3496L34 14.8941C33.464 16.056 32.2675 16.7323 30.8049 16.7323C28.508 16.7323 26.9424 14.9982 27.2974 12.6432C27.4363 11.9515 27.7853 11.3169 28.2989 10.8219C28.8125 10.3269 29.4668 9.99469 30.1765 9.86847C31.9196 9.63945 33.3894 10.3575 33.9574 11.6824L32.5692 12.2165C32.4254 11.8769 32.1778 11.5889 31.86 11.3921C31.5423 11.1952 31.17 11.0992 30.7941 11.1171C29.6156 11.1171 28.8486 11.9599 28.8486 13.2536C28.8486 14.5472 29.6155 15.39 30.8154 15.39C31.1859 15.4058 31.5532 15.3156 31.8722 15.1309ZM17.9641 9.96204H16.9132V16.5797H18.4682V12.5425L22.0645 16.5797H23.1154V9.96204H21.5604V13.9992L17.9641 9.96204ZM19.125 25.4207V21.1857H30.844V27.6473C30.844 31.5354 28.9197 34.0292 24.9756 35.2466C24.4998 35.1019 24.0339 34.9281 23.5804 34.7262V34.8511C22.9982 38.1669 20.8823 40.3624 17.1618 41.5C13.4448 40.3623 11.3255 38.1669 10.7432 34.8511C10.7432 34.8511 10.7254 34.806 10.7254 34.7262C10.272 34.9281 9.80591 35.1019 9.33019 35.2466C5.38594 34.0292 3.46186 31.5319 3.46186 27.6473V21.1823H15.1985V25.4207H19.125ZM9.31872 33.8824C6.13205 32.6339 4.8499 30.7856 4.8499 27.3942V23.2077C4.8499 23.032 4.92139 22.8636 5.04849 22.7394C5.17566 22.6151 5.34817 22.5454 5.52803 22.5454H13.1359C13.3158 22.5454 13.4882 22.6151 13.6155 22.7394C13.7426 22.8636 13.8141 23.0321 13.8141 23.2077V25.4206H10.5799V33.3043C10.1724 33.5227 9.75112 33.716 9.31872 33.8824ZM13.8105 27.3976V26.7803H12.6531C12.4732 26.7803 12.3008 26.85 12.1737 26.9743C12.0465 27.0985 11.9751 27.267 11.9751 27.4426V32.3539C13.2602 31.192 13.8105 29.6278 13.8105 27.3976ZM17.1618 40.144C20.3321 38.9127 21.9012 37.1438 22.2562 34.1888C22.2562 34.1888 22.2633 34.1228 22.2776 34.005C20.1652 32.6072 19.1251 30.5053 19.1251 27.6509V26.7838H15.2022V27.6509C15.2022 30.5053 14.1797 32.6177 12.0497 34.005C12.0709 34.1229 12.0709 34.1888 12.0709 34.1888C12.4259 37.1439 13.9915 38.9127 17.1618 40.144ZM20.5309 27.3976C20.5309 29.6278 21.0811 31.1921 22.3663 32.3539V27.4426C22.3663 27.3557 22.3488 27.2695 22.3147 27.1892C22.2807 27.1088 22.2307 27.0358 22.1677 26.9743C22.1048 26.9127 22.0301 26.8639 21.9478 26.8306C21.8655 26.7973 21.7773 26.7803 21.6883 26.7803H20.5309L20.5309 27.3976ZM24.9862 33.8905C28.1885 32.6418 29.4665 30.7932 29.4665 27.3976V23.2148C29.4665 23.0402 29.3961 22.8728 29.2704 22.7488C29.1448 22.6247 28.9741 22.5541 28.7955 22.5523H21.1947C21.0148 22.5523 20.8424 22.622 20.7152 22.7463C20.5881 22.8705 20.5166 23.039 20.5166 23.2148V25.4275H23.7224V33.3112C24.1308 33.5301 24.5528 33.7236 24.9862 33.8905Z" fill="black"/>
</svg>
