<svg xmlns="http://www.w3.org/2000/svg" width="130" height="23" fill="none" fill-rule="evenodd" xmlns:v="https://vecta.io/nano"><path d="M11.217 22.402h-8.83c-1.353 0-2.387-1.04-2.387-2.4v-8.881C0 4.96 4.932 0 10.979 0c6.47 0 11.326 4.832 11.297 11.281-.028 6.16-4.933 11.121-11.059 11.121zm5.012-9.761l-4.774-.479c-.397 0-.716-.321-.796-.721l-.716-5.28a.43.43 0 0 0-.398-.4c-.159 0-.398.08-.398.32l-1.432 8.161c-.08.241.159.48.478.48l8.115-1.28c.238-.079.398-.24.318-.4s-.159-.4-.398-.4z" fill="#603680"/><path d="M115.208 6.874c-3.156 0-7.719 2.923-3.612 7.398.395.463.591.858.591 1.255 0 .528-.328.925-1.05 1.123l-1.839.463c0 .198 1.773 2.972 1.97 2.972.723 0 1.511-.198 2.43-.594.788-.33 5.665-2.692 1.314-7.068-.395-.462-.591-.792-.591-1.123 0-1.374 1.901-1.548 2.507-1.345.736-.739-1.588-3.081-1.72-3.081zm-7.52 1.59c.05-.352-3.448-.798-3.711-.798-.131 0-.525 1.19-.591 1.19 0 0-.693-1.388-3.087-1.388-7.892 0-7.557 12.484-.459 12.484 1.915 0 3.212-1.585 3.218-1.585.066 0 .328 1.453.526 1.453 1.313 0 2.751-.18 3.802-.247.263 0-.624-4.544.302-11.11zM33.372 19.623h-4.073c-.197 0-.348-.052-.346-.184.017-1.039.32-15.706-.081-16.955l4.565-.167c.132 0 .264.198.394.528l3.547 7.861c.263.528.459.792.656.792.066 0 .263-.264.657-.925l3.601-7.734c.132-.33.342-.521.459-.463.166.082 3.72.098 3.953.006.244-.097.459.077.394.264-.372 1.067-.229 15.833.066 16.579.096.246-.066.397-.328.397h-4.335c-.198 0-.33-.132-.328-.397.009-1.761.316-7.794 0-7.795-.066 0-2.825 6.672-3.416 8.125-.434.654-1.511.198-1.577.066-.394-.859-2.931-7.145-3.415-7.886-.175-.268-.162.048-.162.18l.097 7.309c0 .264-.132.397-.328.397zm59.374-3.831c.132.001-.131 2.907-.197 2.972s-1.343 1.124-3.876 1.124c-2.364 0-3.546-.925-3.546-2.709 0-.528.132-4.359.132-4.888 0-1-1.314-.168-1.314-.858V8.657c0-.357 1.248-.077 1.248-.528.066-.264.066-4.426.263-4.426s4.138.661 4.138.793c0 .264-.131 2.642-.131 2.972 0 .397.066.594.328.594.328 0 2.607-.247 2.844-.132.204.098.153 3.473-.112 3.897h-2.798c-.132 0-.197.198-.197.528 0 0 .131 2.907.263 3.171.743.933 2.824.264 2.955.264zm-37.7-8.454c1.839 0 3.35.594 4.466 1.783 3.219 3.237 1.084 7.895 0 9.049-1.116 1.124-2.627 1.718-4.466 1.718-1.773 0-3.219-.594-4.401-1.718-2.452-2.611-2.058-6.927-.066-9.049 1.117-1.189 2.562-1.783 4.467-1.783zm26.991.66c-.247.128-.438 10.903-.193 11.427.083.18-.132.33-.328.33-.263.066-3.481.066-3.744 0-.197 0-.418-.107-.329-.132.186-.051.194-11.27-.131-11.361-.19-.054.131-.265.328-.265.263 0 4.631-.119 4.397 0zm-7.089 11.296l.065-8.653c0-.991-.394-1.783-1.182-2.378-.723-.463-1.576-.727-2.562-.727-2.318 0-3.754 1.595-3.856 1.683-.027.024-.043.026-.054.01-.054-.078-.108-.344-.162-.834-.066-.528-.132-.859-.197-.859-.123.114-3.666.764-4.204.661-.144-.028-.197.397-.197.462.328 1.189.459 2.774.459 4.822v5.813c0 .198.132.396.394.396.263.066 3.284.066 3.612 0 .263 0 .394-.198.394-.462V12.62c0-.33.788-1.32 1.773-1.32s1.445.528 1.445 1.651l-.131 6.209c0 .264.131.463.394.528s3.481.066 3.677 0c.198 0 .329-.132.329-.396zm47.617.33h-3.152c-.198 0-.395-.132-.395-.397V4.628c1.263-.629 2.598-.918 4.007-.859v8.389h.394l2.102-3.501c.066-.132.197-.198.328-.198v-.066h3.743a.42.42 0 0 1 .329.661l-3.415 4.954 3.415 4.954a.42.42 0 0 1-.329.661h-3.809a.36.36 0 0 1-.328-.199l-2.102-3.5h-.394v3.302c0 .198-.131.397-.394.397zm-65.774-4.346a2.11 2.11 0 0 1-1.68.845c-.656 0-1.182-.264-1.576-.792-1.003-1.177-.522-2.736 0-3.435.393-.528.92-.793 1.576-.793s1.255.275 1.648.737c.526.617.895 2.048.031 3.438zm45.742.052c-.46.462-2.04 1.251-3.35-.066-.459-.463-1.131-2.297 0-3.435.459-.462 2.058-1.365 3.415 0s.394 3.038-.065 3.501zm-21.1-11.956c1.296 1.116.917 3.698-1.641 3.698-2.026 0-3.455-2.331-1.642-3.698.459-.397 1.988-1.117 3.284 0z" fill="#333359"/></svg>