<svg viewBox="0 0 204.51 104.57" xmlns="http://www.w3.org/2000/svg"><path d="m183.51 0a21 21 0 0 0 -20.31 15.79h-29.2a20.82 20.82 0 0 0 -20.8 20.8 10.41 10.41 0 0 1 -10.43 10.41h-4.17a21 21 0 0 0 -40.6 0h-16.7a21 21 0 1 0 0 10.4h16.7a21 21 0 0 0 40.57.19h4.21a10.41 10.41 0 0 1 10.4 10.41 20.82 20.82 0 0 0 20.82 20.78h6.81a21 21 0 1 0 0-10.4h-6.81a10.41 10.41 0 0 1 -10.42-10.38 20.75 20.75 0 0 0 -7.19-15.69 20.73 20.73 0 0 0 7.19-15.69 10.41 10.41 0 0 1 10.42-10.42h29.23a21 21 0 1 0 20.28-26.2zm-162.51 62.77a10.59 10.59 0 1 1 10.58-10.59 10.6 10.6 0 0 1 -10.58 10.59zm57.32 0a10.59 10.59 0 1 1 10.58-10.59 10.6 10.6 0 0 1 -10.59 10.59zm82.77 10.23a10.59 10.59 0 1 1 -10.59 10.57 10.6 10.6 0 0 1 10.59-10.57zm22.42-41.4a10.59 10.59 0 1 1 10.59-10.6 10.6 10.6 0 0 1 -10.59 10.58z" fill="#ff6d5a"/></svg>