<svg width="14" height="14" viewBox="0 0 14 14" fill="none" xmlns="http://www.w3.org/2000/svg" aria-hidden="true"><path d="M1 1.91406H7.5081" stroke="#7B68EE" stroke-width="1.16293" stroke-linecap="round" stroke-linejoin="round"></path><path d="M1 4.65625H5.93718" stroke="#7B68EE" stroke-width="1.16293" stroke-linecap="round" stroke-linejoin="round"></path><path d="M1 7.39844H4.59068" stroke="#7B68EE" stroke-width="1.16293" stroke-linecap="round" stroke-linejoin="round"></path><path d="M11.9717 1.45483L12.7683 2.7847L9.85671 10.2928L7.43515 9.31878L10.4155 1.73822L11.9717 1.45483Z" fill="#7B68EE" fill-opacity="0.1"></path><path d="M7.21954 9.54398L7.06602 9.93062C6.94234 10.2421 6.88296 10.5756 6.89688 10.9121C6.9309 11.7346 7.01441 13.27 7.16551 13.3308C7.3158 13.3913 8.44621 12.3603 9.05271 11.7925C9.30611 11.5552 9.50129 11.2632 9.63003 10.939L9.82026 10.4599M7.21954 9.54398L10.0855 2.32591C10.3656 1.62047 11.1491 1.25419 11.8533 1.53745V1.53745V1.53745C12.5349 1.81159 12.8723 2.58948 12.6067 3.27445L9.82026 10.4599M7.21954 9.54398C7.21954 9.54398 7.68099 9.3608 8.56688 9.71711C9.45277 10.0734 9.82026 10.4599 9.82026 10.4599" stroke="#7B68EE" stroke-width="1.16293" stroke-linecap="round" stroke-linejoin="round"></path></svg>