<svg fill="none" height="57" viewBox="0 0 199 57" width="199" xmlns="http://www.w3.org/2000/svg"><path d="m76.06 22.182c-1.2653 0-2.4093-.2167-3.432-.65-1.0053-.4333-1.8027-1.0573-2.392-1.872s-.8927-1.7767-.91-2.886h3.9c.052.7453.312 1.3347.78 1.768.4853.4333 1.144.65 1.976.65.8493 0 1.5167-.1993 2.002-.598.4853-.416.728-.9533.728-1.612 0-.5373-.1647-.9793-.494-1.326s-.7453-.6153-1.248-.806c-.4853-.208-1.1613-.4333-2.028-.676-1.1787-.3467-2.1407-.6847-2.886-1.014-.728-.3467-1.3607-.858-1.898-1.534-.52-.6933-.78-1.612-.78-2.756 0-1.07467.2687-2.01067.806-2.808s1.2913-1.404 2.262-1.82c.9707-.43333 2.08-.65 3.328-.65 1.872 0 3.3887.45933 4.55 1.378 1.1787.90133 1.8287 2.16667 1.95 3.796h-4.004c-.0347-.624-.3033-1.13533-.806-1.534-.4853-.416-1.1353-.624-1.95-.624-.7107 0-1.2827.182-1.716.546-.416.364-.624.89267-.624 1.586 0 .48533.156.89267.468 1.222.3293.312.728.572 1.196.78.4853.1907 1.1613.416 2.028.676 1.1787.3467 2.1407.6933 2.886 1.04s1.3867.8667 1.924 1.56.806 1.6033.806 2.73c0 .9707-.2513 1.872-.754 2.704s-1.2393 1.4993-2.21 2.002c-.9707.4853-2.1233.728-3.458.728zm8.6417-7.436c0-1.456.286-2.7473.858-3.874.5894-1.12667 1.3781-1.99333 2.3661-2.6 1.0053-.60667 2.1233-.91 3.354-.91 1.0746 0 2.0106.21667 2.808.65.8146.43333 1.4646.97933 1.95 1.638v-2.054h3.666v14.404h-3.666v-2.106c-.468.676-1.118 1.2393-1.95 1.69-.8147.4333-1.7594.65-2.834.65-1.2134 0-2.3227-.312-3.328-.936-.988-.624-1.7767-1.4993-2.3661-2.626-.572-1.144-.858-2.4527-.858-3.926zm11.3361.052c0-.884-.1734-1.638-.52-2.262-.3467-.6413-.8147-1.1267-1.404-1.456-.5894-.3467-1.222-.52-1.898-.52s-1.3.1647-1.872.494-1.04.8147-1.404 1.456c-.3467.624-.52 1.3693-.52 2.236s.1733 1.6293.52 2.288c.364.6413.832 1.1353 1.404 1.482.5893.3467 1.2133.52 1.872.52.676 0 1.3086-.1647 1.898-.494.5893-.3467 1.0573-.832 1.404-1.456.3466-.6413.52-1.404.52-2.288zm13.2272 3.848 3.64-11.05h3.874l-5.33 14.404h-4.42l-5.304-14.404h3.9zm22.948-4.16c0 .52-.034.988-.104 1.404h-10.53c.087 1.04.451 1.8547 1.092 2.444.642.5893 1.43.884 2.366.884 1.352 0 2.314-.5807 2.886-1.742h3.926c-.416 1.3867-1.213 2.5307-2.392 3.432-1.178.884-2.626 1.326-4.342 1.326-1.386 0-2.634-.3033-3.744-.91-1.092-.624-1.95-1.4993-2.574-2.626-.606-1.1267-.91-2.4267-.91-3.9 0-1.4907.304-2.7993.91-3.926.607-1.12667 1.456-1.99333 2.548-2.6s2.349-.91 3.77-.91c1.37 0 2.592.29467 3.666.884 1.092.58933 1.933 1.43 2.522 2.522.607 1.0747.91 2.314.91 3.718zm-3.77-1.04c-.017-.936-.355-1.6813-1.014-2.236-.658-.572-1.464-.858-2.418-.858-.901 0-1.664.2773-2.288.832-.606.5373-.979 1.2913-1.118 2.262z" fill="#252347"/><path d="m89.58 31.852v18.148h-3.64v-11.804l-4.862 11.804h-2.756l-4.888-11.804v11.804h-3.64v-18.148h4.134l5.772 13.494 5.772-13.494zm17.379 3.744-8.9182 21.216h-3.874l3.12-7.176-5.772-14.04h4.082l3.718 10.062 3.7702-10.062zm11.797 11.518h5.98v2.886h-9.62v-18.148h3.64zm21.684-4.628c0 .52-.035.988-.104 1.404h-10.53c.087 1.04.451 1.8547 1.092 2.444s1.43.884 2.366.884c1.352 0 2.314-.5807 2.886-1.742h3.926c-.416 1.3867-1.213 2.5307-2.392 3.432-1.179.884-2.626 1.326-4.342 1.326-1.387 0-2.635-.3033-3.744-.91-1.092-.624-1.95-1.4993-2.574-2.626-.607-1.1267-.91-2.4267-.91-3.9 0-1.4907.303-2.7993.91-3.926s1.456-1.9933 2.548-2.6 2.349-.91 3.77-.91c1.369 0 2.591.2947 3.666.884 1.092.5893 1.933 1.43 2.522 2.522.607 1.0747.91 2.314.91 3.718zm-3.77-1.04c-.017-.936-.355-1.6813-1.014-2.236-.659-.572-1.465-.858-2.418-.858-.901 0-1.664.2773-2.288.832-.607.5373-.979 1.2913-1.118 2.262zm5.491 1.3c0-1.456.286-2.7473.858-3.874.589-1.1267 1.378-1.9933 2.366-2.6 1.005-.6067 2.123-.91 3.354-.91 1.074 0 2.01.2167 2.808.65.814.4333 1.464.9793 1.95 1.638v-2.054h3.666v14.404h-3.666v-2.106c-.468.676-1.118 1.2393-1.95 1.69-.815.4333-1.76.65-2.834.65-1.214 0-2.323-.312-3.328-.936-.988-.624-1.777-1.4993-2.366-2.626-.572-1.144-.858-2.4527-.858-3.926zm11.336.052c0-.884-.174-1.638-.52-2.262-.347-.6413-.815-1.1267-1.404-1.456-.59-.3467-1.222-.52-1.898-.52s-1.3.1647-1.872.494-1.04.8147-1.404 1.456c-.347.624-.52 1.3693-.52 2.236s.173 1.6293.52 2.288c.364.6413.832 1.1353 1.404 1.482.589.3467 1.213.52 1.872.52.676 0 1.308-.1647 1.898-.494.589-.3467 1.057-.832 1.404-1.456.346-.6413.52-1.404.52-2.288zm6.285-.052c0-1.456.286-2.7473.858-3.874.589-1.1267 1.386-1.9933 2.392-2.6 1.005-.6067 2.123-.91 3.354-.91.936 0 1.828.208 2.678.624.849.3987 1.525.936 2.028 1.612v-6.838h3.692v19.24h-3.692v-2.132c-.451.7107-1.084 1.2827-1.898 1.716-.815.4333-1.76.65-2.834.65-1.214 0-2.323-.312-3.328-.936-1.006-.624-1.803-1.4993-2.392-2.626-.572-1.144-.858-2.4527-.858-3.926zm11.336.052c0-.884-.174-1.638-.52-2.262-.347-.6413-.815-1.1267-1.404-1.456-.59-.3467-1.222-.52-1.898-.52s-1.3.1647-1.872.494-1.04.8147-1.404 1.456c-.347.624-.52 1.3693-.52 2.236s.173 1.6293.52 2.288c.364.6413.832 1.1353 1.404 1.482.589.3467 1.213.52 1.872.52.676 0 1.308-.1647 1.898-.494.589-.3467 1.057-.832 1.404-1.456.346-.6413.52-1.404.52-2.288zm12.733 7.436c-1.179 0-2.236-.208-3.172-.624-.936-.4333-1.681-1.014-2.236-1.742-.537-.728-.832-1.534-.884-2.418h3.666c.069.5547.338 1.014.806 1.378.485.364 1.083.546 1.794.546.693 0 1.231-.1387 1.612-.416.399-.2773.598-.6327.598-1.066 0-.468-.243-.8147-.728-1.04-.468-.2427-1.222-.5027-2.262-.78-1.075-.26-1.959-.5287-2.652-.806-.676-.2773-1.265-.702-1.768-1.274-.485-.572-.728-1.3433-.728-2.314 0-.7973.225-1.5253.676-2.184.468-.6587 1.127-1.1787 1.976-1.56.867-.3813 1.881-.572 3.042-.572 1.716 0 3.085.4333 4.108 1.3 1.023.8493 1.586 2.002 1.69 3.458h-3.484c-.052-.572-.295-1.0227-.728-1.352-.416-.3467-.979-.52-1.69-.52-.659 0-1.17.1213-1.534.364-.347.2427-.52.5807-.52 1.014 0 .4853.243.858.728 1.118.485.2427 1.239.494 2.262.754 1.04.26 1.898.5287 2.574.806s1.257.7107 1.742 1.3c.503.572.763 1.3347.78 2.288 0 .832-.234 1.5773-.702 2.236-.451.6587-1.109 1.1787-1.976 1.56-.849.364-1.846.546-2.99.546z" fill="#407bff"/><path d="m196.5 50c1.381 0 2.5-1.1193 2.5-2.5s-1.119-2.5-2.5-2.5-2.5 1.1193-2.5 2.5 1.119 2.5 2.5 2.5z" fill="#1c38d6"/><rect fill="#fff" height="55" rx="10" width="55"/><path d="m25 43.9c-1.5 0-3-.6-4.2-1.7-2.4-2.3-2.4-6.1 0-8.5l18.6-18.9c2.3-2.4 6.1-2.4 8.5 0 2.4 2.3 2.4 6.1 0 8.5l-18.7 18.8c-1.1 1.2-2.7 1.8-4.2 1.8z" fill="#21c58e"/><path d="m25.0002 43.9c-1.5 0-3.1-.6-4.2-1.8l-10-10c-2.3-2.3-2.3-6.1 0-8.5 2.3-2.3 6.1-2.3 8.5 0l10 10c2.3 2.3 2.3 6.1 0 8.5-1.2 1.2-2.8 1.8-4.3 1.8z" fill="#407bff"/><path d="m25 43.9c3.3 0 6-2.7 6-6.1s-2.7-6.1-6-6.1-6 2.7-6 6.1 2.7 6.1 6 6.1z" fill="#1c38d6"/></svg>