<svg xmlns="http://www.w3.org/2000/svg" viewBox="0 0 371 58.3" xmlns:v="https://vecta.io/nano"><path fill="#575659" d="M221.1 39.4h-16.9V1h-7.7v35.3h0c0 5.1 0 9.2 9.2 9.2h0 0 0 0 0 16.9l-1.5-6.1zM99.8 1H64.5v6.1h13.8 0v38.4H86V7.1h0 13.8V1zm20 10.7h0 0-16.9 0c-9.2 0-9.2 4.1-9.2 9.2h0 0v15.3h0c0 5.1 0 9.2 9.2 9.2h15.3 0 9.2l-1.5-6.1h-23 0-1.5v-3.1h0V21h0 0 0v-3.1h1.5 0 16.9 0 0 1.5V21h0v1.5 3.1h-1.5H106l-1.5 6.1h9.2 0 6.1 0 0c9.2 0 9.2-4.1 9.2-9.2h0 0V21c0-5.1 0-9.3-9.2-9.3zm38.4 13.9h0 0 0-18.4v-7.7h24.5l1.5-6.1h-24.6 0c-9.2 0-9.2 4.1-9.2 9.2v1.5h0 0c0 5.1 0 9.2 9.2 9.2h0 18.4v7.7H135l-1.5 6.1h24.6 0 0 0c9.2 0 9.2-4.1 9.2-9.2v-1.5c.1-5.1 0-9.2-9.1-9.2zm33.7 13.8h-13.8V17.9h10.7l1.5-6.1h-9.2 0-3.1V7.1h-7.7v29.2h0c0 5.1 0 9.2 9.2 9.2h0 0 0 0 0 13.8l-1.4-6.1zM370 21c0-5.1 0-9.2-9.2-9.2h0-16.9 0c-9.2 0-9.2 4.1-9.2 9.2h0v15.3h0c0 5.1 0 9.2 9.2 9.2h0 0 0 0 15.3 0 9.2l-1.5-6.1h-24.6V21h0v-3.1h1.5 0 16.9 0 1.5V21h0v1.5h0 0 0v3.1h-1.5 0-6.2-7.7l-1.5 6.1h9.2 0 6.1 0c9.2 0 9.2-4.1 9.2-9.2h0 0V21zm-121.3-9.3h0-15.3 0c-9.2 0-9.2 4.1-9.2 9.2v15.3c0 5.1 0 9.2 9.2 9.2h0 0 0 15.3 0c9.2 0 9.2-4.1 9.2-9.2h0V21h0c0-5.1 0-9.3-9.2-9.3zm1.5 24.6h0v3.1h-1.5 0-15.3 0 0 0-1.5v-3.1h0V21h0v-3.1h1.5 0 15.3 0 1.5V21h0v15.3zM331.6 21c0-5.1 0-9.2-9.2-9.2h0 0 0 0 0-16.9 0c-7.6.5-7.7 4.4-7.7 9.2h0v15.3h0c0 5.1 0 9.2 9.2 9.2h4.6 9.2l-1.5-6.1H307h0-1.5v-3.1h0V21h0v-3.1h1.5 0 15.3 0 0 0 1.5V21h0v26h0v3.1h-1.5 0-13.8-7.7l-1.5 6.1h9.2 0 13.8 0c9.2 0 9.2-4.1 9.2-9.2h0V21h.1zM294.7 1H287v35.3h0 0 0v3.1h-1.5 0-15.3 0 0 0-1.5v-3.1h0 0V21h0v-3.1h1.5 0 4.6 7.7l1.5-6.1h-9.2 0-4.6 0c-9.2 0-9.2 4.1-9.2 9.2v15.3h0 0 0c0 5.1 0 9.2 9.2 9.2h0 0 0 0 15.3 0c9.2 0 9.2-4.1 9.2-9.2h0 0V1z"/><path fill="#00758d" d="M1.6 2.5v13.8l23-3z"/><path fill="#b6bd00" d="M53.8 2.5l-23 10.8 23 3z"/><path fill="#00665e" d="M30.8 13.3L40 40.9l3-18.4z"/><path fill="#b6bd00" d="M12.4 22.5l3 18.4 9.2-27.6z"/><path fill="#00758d" d="M46.1 1L27.7 8.7l26.1-6.2z"/><path d="M27.7 4.1L9.3 1l18.4 7.7zM15.4 40.9l12.3 4.6-3.1-32.2z" fill="#63a70a"/><path fill="#00665e" d="M1.6 16.3l10.8 6.2 12.2-9.2z"/><path fill="#00758d" d="M27.7 45.5L40 40.9l-9.2-27.6z"/><path fill="#63a70a" d="M43 22.5l10.8-6.2-23-3z"/><path fill="#00665e" d="M46.1 1L27.7 4.1v4.6z"/><path fill="#b6bd00" d="M9.3 1L1.6 2.5l26.1 6.2z"/></svg>