<svg fill="none" height="37" width="163" xmlns="http://www.w3.org/2000/svg" xmlns:xlink="http://www.w3.org/1999/xlink"><clipPath id="a"><path d="m0 0h163v37h-163z"/></clipPath><g clip-path="url(#a)"><path clip-rule="evenodd" d="m2.997 19.524c.993 0 1.825.716 2.02 1.693 1.086 5.397 5.32 9.643 10.701 10.73.966.195 1.675 1.013 1.69 1.997v3.036c-9.294-.517-16.738-7.895-17.391-17.174l-.017-.282zm33.881 0c-.52 9.412-8.022 16.934-17.407 17.454v-3.004c0-.996.714-1.83 1.688-2.027 5.382-1.087 9.617-5.333 10.7-10.73.197-.977 1.028-1.693 2.023-1.693zm-19.47-19.524v3.004c0 .996-.715 1.83-1.689 2.027-5.382 1.087-9.617 5.333-10.7 10.73-.195.967-1.011 1.679-1.993 1.693h-3.026c.52-9.411 8.022-16.933 17.407-17.453zm17.395 9.88a18.489 18.489 0 0 1 2.07 7.481l.005.093h-2.992c-1 0-1.83-.726-2.028-1.71a13.653 13.653 0 0 0 -2.099-4.993l-.048-.07 2.02-1.508a2.07 2.07 0 0 1 3.072.708z" fill="#eb4e29" fill-rule="evenodd"/><path clip-rule="evenodd" d="m18.253 16.377-5.546-4.414-1.933 1.939 8.736 9.798c3.91-7.414 8.864-14.02 14.268-20.015a21.647 21.647 0 0 0 -1.522-1.436 74.907 74.907 0 0 0 -2.256 1.798 18.352 18.352 0 0 0 -10.53-4.047v3.002c0 1.002.72 1.834 1.7 2.032a13.62 13.62 0 0 1 5.174 2.243 70.752 70.752 0 0 0 -8.092 9.1z" fill="#27c26c" fill-rule="evenodd"/><path d="m58.066 14.39h-4.66v12.287h-3.135v-12.286h-4.597v-2.461h12.392zm4.772 12.287h-3.03v-10.96h3.03zm-3.208-13.795c0-.44.152-.8.455-1.084s.716-.425 1.238-.425c.516 0 .927.141 1.233.425.307.284.46.645.46 1.084 0 .445-.155.81-.465 1.094-.31.283-.72.425-1.228.425s-.918-.142-1.228-.425c-.31-.284-.465-.649-.465-1.094zm8.524 2.836.094 1.225c.8-.952 1.884-1.428 3.25-1.428 1.455 0 2.455.557 2.998 1.671.794-1.114 1.926-1.67 3.396-1.67 1.226 0 2.139.345 2.738 1.037.599.693.898 1.734.898 3.125v7h-3.03v-6.99c0-.62-.125-1.075-.376-1.362-.25-.287-.693-.43-1.327-.43-.906 0-1.533.418-1.88 1.255l.01 7.526h-3.02v-6.979c0-.634-.13-1.093-.387-1.377-.258-.284-.696-.426-1.316-.426-.857 0-1.477.345-1.86 1.034v7.748h-3.02v-10.96h2.832zm20.894 11.162c-1.657 0-3.007-.493-4.049-1.479-1.041-.986-1.562-2.3-1.562-3.94v-.284c0-1.1.22-2.084.659-2.952.438-.868 1.06-1.537 1.865-2.006.804-.47 1.722-.704 2.753-.704 1.546 0 2.764.473 3.652 1.418.888.946 1.332 2.286 1.332 4.021v1.196h-7.2c.098.716.393 1.29.884 1.722.49.432 1.113.648 1.865.648 1.163 0 2.072-.409 2.727-1.226l1.484 1.61c-.453.622-1.066 1.107-1.84 1.454-.772.348-1.63.522-2.57.522zm-.344-8.995c-.6 0-1.085.196-1.458.588s-.611.952-.716 1.681h4.2v-.233c-.013-.648-.194-1.15-.543-1.504-.348-.354-.843-.532-1.483-.532zm12.218 8.792v-14.747h4.681c1.338 0 2.534.292 3.59.876a6.2 6.2 0 0 1 2.471 2.492c.592 1.077.888 2.3.888 3.671v.679c0 1.37-.291 2.59-.873 3.656a6.145 6.145 0 0 1 -2.46 2.482c-1.059.587-2.254.885-3.584.891zm3.135-12.286v9.845h1.515c1.226 0 2.163-.388 2.811-1.165.648-.776.978-1.887.992-3.332v-.78c0-1.499-.32-2.635-.961-3.408-.641-.774-1.578-1.16-2.811-1.16zm10.101 6.705c0-1.087.216-2.056.648-2.907a4.647 4.647 0 0 1 1.865-1.975c.811-.466 1.753-.699 2.826-.699 1.526 0 2.771.453 3.736 1.357.965.905 1.503 2.134 1.614 3.688l.021.749c0 1.681-.484 3.03-1.452 4.046-.969 1.017-2.268 1.525-3.898 1.525s-2.931-.506-3.903-1.52c-.971-1.012-1.457-2.39-1.457-4.132zm3.019.213c0 1.04.203 1.835.607 2.385s.982.826 1.734.826c.732 0 1.303-.272 1.714-.816.411-.543.616-1.413.616-2.608 0-1.02-.205-1.81-.616-2.37s-.989-.84-1.735-.84c-.738 0-1.309.278-1.713.835s-.607 1.42-.607 2.588zm14.25 3.21c.557 0 1.01-.148 1.358-.445s.529-.692.543-1.185h2.832a3.673 3.673 0 0 1 -.627 2.041 4.097 4.097 0 0 1 -1.687 1.438c-.714.341-1.503.512-2.367.512-1.616 0-2.891-.498-3.824-1.494-.934-.996-1.401-2.372-1.401-4.128v-.192c0-1.688.464-3.035 1.39-4.041.927-1.007 2.198-1.51 3.814-1.51 1.414 0 2.548.39 3.401 1.17.854.78 1.287 1.818 1.301 3.115h-2.832c-.014-.567-.195-1.028-.543-1.383-.348-.354-.808-.532-1.379-.532-.704 0-1.235.249-1.594.745-.358.496-.538 1.302-.538 2.416v.303c0 1.128.178 1.939.533 2.431.355.493.895.74 1.62.74zm10.069-11.495v2.694h1.933v2.147h-1.933v5.47c0 .405.08.695.241.87.16.176.466.264.919.264.334 0 .631-.023.888-.07v2.218a6.396 6.396 0 0 1 -1.828.263c-2.118 0-3.198-1.037-3.24-3.11v-5.905h-1.65v-2.147h1.65v-2.694zm2.514 8.072c0-1.087.216-2.056.648-2.907a4.659 4.659 0 0 1 1.865-1.975c.812-.466 1.754-.699 2.827-.699 1.525 0 2.77.453 3.735 1.357.965.905 1.503 2.134 1.614 3.688l.021.749c0 1.681-.484 3.03-1.452 4.046-.968 1.017-2.267 1.525-3.898 1.525-1.63 0-2.931-.506-3.902-1.52-.972-1.012-1.458-2.39-1.458-4.132zm3.02.213c0 1.04.202 1.835.606 2.385s.982.826 1.734.826c.732 0 1.303-.272 1.714-.816.411-.543.617-1.413.617-2.608 0-1.02-.206-1.81-.617-2.37s-.989-.84-1.734-.84c-.739 0-1.31.278-1.714.835s-.606 1.42-.606 2.588zm15.9-2.846a8.443 8.443 0 0 0 -1.087-.081c-1.142 0-1.891.374-2.246 1.124v7.171h-3.02v-10.96h2.853l.083 1.307c.606-1.006 1.446-1.509 2.518-1.509.335 0 .648.044.941.132z" fill="#5b5e71"/></g></svg>