<svg xmlns="http://www.w3.org/2000/svg" width="1771" height="740"><path d="M401.491 334.894a25.588 25.588 0 01-8.794 17.988l-69.281 60.408a26.184 26.184 0 01-17.27 6.443 7.127 7.127 0 01-.916-.039l-2.626-.237a25.828 25.828 0 01-13.69-6.484l-40.111-36.37c-9.87-8.896-12.217-23.05-5.651-33.644a26.169 26.169 0 0139.754-5.535l13.41 12.097a15.675 15.675 0 0020.892.198l40.51-35.304c7.999-6.958 18.942-8.895 27.896-4.981a26.03 26.03 0 0115.877 25.46z" fill="#25cf60"/><path d="M256.55 542.794c-95.907-25.873-152.743-124.435-126.7-219.714s125.254-151.747 221.16-125.874a26.625 26.625 0 11-14.04 51.365c-67.392-18.18-137.11 21.502-155.412 88.458-18.3 66.954 21.64 136.217 89.032 154.397 67.396 18.182 137.114-21.498 155.414-88.452a26.779 26.779 0 0151.709 13.95c-26.043 95.28-125.258 151.743-221.164 125.87z" fill="#25cf60"/><g fill="#1b1b20"><path d="M585.618 315.46h-46.33v-26.967h125.419v26.967h-46.33v135.76h-32.759zM690.215 280.357c10.764 0 18.485 7.904 18.485 18.365s-7.721 18.365-18.485 18.365-18.486-7.905-18.486-18.365 7.722-18.365 18.486-18.365zm-15.911 49.98h31.823v120.884h-31.823zM726.48 330.338h30.42v14.413c6.083-11.16 17.783-17.203 35.098-17.203 15.678 0 27.846 6.276 35.1 17.203 8.891-11.392 22.463-17.203 40.247-17.203 25.505 0 43.522 17.203 43.522 46.26v77.413h-31.823v-72.298c0-13.948-6.317-23.944-21.762-23.944-14.039 0-22.697 8.369-22.697 24.642v71.6h-31.823v-72.298c0-13.948-6.318-23.944-21.761-23.944-14.273 0-22.697 8.369-22.697 24.642v71.6H726.48zM923.969 400.078v-16.506c0-32.777 19.655-56.024 56.158-56.024 36.035 0 54.286 23.944 54.286 53.003v21.154h-79.558v3.022c0 14.18 7.254 26.501 25.74 26.501 13.572 0 21.996-6.973 25.037-15.342h27.846c-4.212 22.084-25.974 38.125-52.883 38.125-34.397 0-56.626-19.993-56.626-53.933zm30.886-20.69h50.31v-3.022c0-15.11-7.956-26.5-25.038-26.5-18.251 0-25.272 12.087-25.272 28.36zM1046.112 381.48v-23.247c0-41.611 22.23-72.994 71.603-72.994 41.416 0 66.922 27.896 68.56 61.139h-30.42c-2.106-18.365-13.805-34.405-38.14-34.405-27.378 0-39.077 18.597-39.077 44.633v26.501c0 26.037 11.699 44.634 39.077 44.634 24.335 0 36.034-16.04 38.14-34.405h30.42c-1.638 33.243-27.144 61.14-68.56 61.14-49.373 0-71.603-31.384-71.603-72.996zM1196.57 416.35c0-26.268 19.889-38.357 49.138-38.357 14.508 0 25.271 5.58 30.888 10.229v-16.505c0-11.159-7.956-19.528-21.06-19.528-10.998 0-17.783 4.882-21.06 11.39h-29.483c7.02-23.478 25.974-36.031 52.18-36.031 30.42 0 51.246 18.365 51.246 46.493v77.18h-30.653v-11.159c-5.617 8.136-21.06 13.949-35.1 13.949-27.377 0-46.097-14.181-46.097-37.66zm80.026-1.162c0-10.693-10.53-16.97-24.804-16.97-14.976 0-24.335 6.045-24.335 17.203s10.062 17.667 23.4 17.667c14.039 0 25.739-7.671 25.739-17.9zM1326.901 330.338h30.42v14.413c6.083-11.16 17.783-17.203 35.098-17.203 15.678 0 27.846 6.276 35.1 17.203 8.891-11.392 22.462-17.203 40.247-17.203 25.505 0 43.522 17.203 43.522 46.26v77.413h-31.823v-72.298c0-13.948-6.318-23.944-21.762-23.944-14.039 0-22.697 8.369-22.697 24.642v71.6h-31.823v-72.298c0-13.948-6.318-23.944-21.761-23.944-14.274 0-22.697 8.369-22.697 24.642v71.6H1326.9zM1647.47 380.783v19.992c0 29.059-18.25 53.236-51.01 53.236-16.146 0-28.547-6.51-34.864-15.809v53.468h-31.824V330.338h30.42v14.413c6.083-9.299 18.485-17.203 36.035-17.203 33.46 0 51.244 24.641 51.244 53.235zm-85.874 1.395v17.668c0 18.364 12.167 28.592 26.675 28.592 18.017 0 27.376-12.088 27.376-29.057v-17.203c0-16.04-8.657-29.059-27.142-29.059-16.146 0-26.91 12.089-26.91 29.059z"/></g></svg>