<svg fill="none" height="45" viewBox="0 0 148 45" width="148" xmlns="http://www.w3.org/2000/svg" xmlns:xlink="http://www.w3.org/1999/xlink"><filter id="a" color-interpolation-filters="sRGB" filterUnits="userSpaceOnUse" height="43.6" width="43.6" x=".199219" y=".699951"><feFlood flood-opacity="0" result="BackgroundImageFix"/><feColorMatrix in="SourceAlpha" type="matrix" values="0 0 0 0 0 0 0 0 0 0 0 0 0 0 0 0 0 0 127 0"/><feOffset dy=".5"/><feGaussianBlur stdDeviation="1"/><feColorMatrix type="matrix" values="0 0 0 0 0.0578824 0 0 0 0 0.109333 0 0 0 0 0.160784 0 0 0 0.32 0"/><feBlend in2="BackgroundImageFix" mode="normal" result="effect1_dropShadow"/><feBlend in="SourceGraphic" in2="effect1_dropShadow" mode="normal" result="shape"/></filter><g filter="url(#a)"><path d="m21.9992 41.7999c10.9353 0 19.8-8.8647 19.8-19.7999 0-10.9353-8.8647-19.80005-19.8-19.80005-10.9352 0-19.79998 8.86475-19.79998 19.80005 0 10.9352 8.86478 19.7999 19.79998 19.7999z" fill="#fff"/></g><path d="m27.2117 28.8878c-1.4493 1.0989-3.2554 1.7521-5.2146 1.7521-1.9693 0-3.7835-.6599-5.2364-1.7693l-4.3916 4.3433c2.5871 2.2231 5.9493 3.57 9.628 3.57 3.6617 0 7.0099-1.3342 9.5921-3.5391z" fill="#00b2ff"/><path d="m30.3839 19.9175c.165.6669.2538 1.3634.2538 2.081 0 1.9451-.6429 3.7397-1.7275 5.1835l4.3768 4.3567c2.2454-2.6575 3.4953-6.035 3.4953-9.5402 0-2.3898-.5828-4.7231-1.6671-6.8119z" fill="#ff4f42"/><path d="m15.068 27.1626c-1.0748-1.4403-1.711-3.2261-1.711-5.1615 0-4.7718 3.8683-8.64 8.64-8.64 1.3798 0 2.6829.3249 3.84.9003l4.4621-4.4625c-2.3732-1.62604-5.2346-2.5821-8.3021-2.5821-8.1105 0-14.78411 6.6739-14.78411 14.7843 0 3.4883 1.23766 6.8509 3.46471 9.5036z" fill="#17c22e"/><path d="m21.1476 25.5554c-.3846 0-.7697-.1468-1.063-.4404l-2.9039-2.9037c-.5873-.5871-.5873-1.5389 0-2.1258.5866-.5873 1.539-.5873 2.1259 0l1.841 1.8405 11.7472-11.747c.5867-.5873 1.5393-.5873 2.1261 0 .5873.5869.5873 1.539 0 2.1261l-12.8105 12.8099c-.2933.2936-.6782.4404-1.0628.4404z" fill="#34393d"/><g fill="#212529"><path d="m55.0718 29.2302h3.3542v-10.0547h4.4722v-3.3191l-12.2986-.0324v3.3515h4.4722z"/><path d="m71.8426 26.9958-3.3541-4.4464v6.6808h-3.3542v-13.4062l2.2361.0324 4.4722 5.5535 4.4722-5.5535 2.2362-.0324v13.4062h-3.3542v-6.6808z"/><path d="m90.8496 23.6443h-5.5903v2.7451h7.8264v2.8732h-11.1806v-13.4386h11.1806v2.7929h-7.8264v2.793h5.5903z"/><path clip-rule="evenodd" d="m115.447 25.8787h-2.236v3.3839h-3.355v-13.4386h6.15c3.354 0 5.59 1.6702 5.59 5.0273 0 2.2288-1.677 3.9102-2.795 4.4688l3.354 3.9101h-3.913zm2.795-5.0274c0-1.6758-1.118-2.2344-2.795-2.2344h-2.236v4.4431l2.236.0257c1.677 0 2.795-.5586 2.795-2.2344z" fill-rule="evenodd"/><path d="m125.509 29.2302v-13.4062h3.354v13.4062z"/><path d="m103.148 29.2626h-3.354v-10.0547h-4.4722v-3.3515h12.2982v3.3515h-4.472z"/><path d="m145.09 27.186c-1.332 1.5381-3.316 2.5134-5.531 2.5134-4.013 0-7.266-3.2012-7.266-7.15s3.253-7.15 7.266-7.15c2.214 0 4.197.9745 5.53 2.5114l-2.579 2.0993c-.701-.8864-1.762-1.4513-2.95-1.4513-2.112 0-3.825 1.7867-3.825 3.9907s1.713 3.9907 3.825 3.9907c1.188 0 2.25-.5659 2.952-1.4535z"/></g></svg>