<svg width="11" height="16" viewBox="0 0 11 16" fill="none" xmlns="http://www.w3.org/2000/svg" aria-hidden="true"><path d="M4.21834 8.66038L1.65916 8.43623C1.32996 8.4074 1.05424 8.22299 1.02095 7.8942C0.973245 7.42296 0.987254 6.5345 1.27802 4.90385C1.56665 3.2852 1.89424 2.27643 2.13459 1.69082C2.31959 1.24006 2.76845 0.999999 3.2557 0.999999L6.26618 1C6.4931 1 6.64345 1.23806 6.54937 1.44455C6.32956 1.92704 5.99197 2.7091 5.82215 3.31132C5.57361 4.19276 5.4212 5.08418 5.4212 5.08418L8.76188 5.28211C9.36795 5.31802 9.76635 5.91773 9.53782 6.48021C9.13331 7.47586 8.45494 8.98863 7.55962 10.4231C6.22311 12.5644 4.35199 15 4.35199 15L4.21834 8.66038Z" fill="#7B68EE" fill-opacity="0.1" stroke="#7B68EE" stroke-width="1.16293" stroke-linecap="round" stroke-linejoin="round"></path></svg>