<svg version="1.1" id="prefix__Layer_1" xmlns="http://www.w3.org/2000/svg" x="0" y="0" viewBox="0 0 722 296" xml:space="preserve"><style></style><path d="M360.68 140.8h75.65v17.34h-53.36v33.9h42.53v16.87h-42.53v46.77h-22.29V140.8zM451.95 137.58l20.09-8.71v126.81h-20.09v-118.1zM486.39 213.85c0-6.59 1.27-12.59 3.81-18.01 2.54-5.41 5.95-10.04 10.24-13.89 4.29-3.84 9.27-6.83 14.95-8.95 5.68-2.12 11.68-3.18 18.01-3.18 6.38 0 12.32 1.06 17.81 3.18 5.49 2.12 10.27 5.1 14.32 8.95 4.05 3.85 7.23 8.45 9.53 13.81s3.45 11.26 3.45 17.7c0 6.59-1.2 12.58-3.61 17.97-2.41 5.39-5.69 9.99-9.85 13.81-4.16 3.82-9.04 6.78-14.63 8.87-5.6 2.09-11.56 3.14-17.89 3.14-6.38 0-12.39-1.06-18.01-3.18-5.62-2.12-10.51-5.09-14.67-8.91-4.16-3.82-7.44-8.38-9.85-13.69-2.4-5.31-3.61-11.18-3.61-17.62zm46.7 27.94c4.19 0 7.78-.78 10.79-2.35 3.01-1.57 5.48-3.65 7.42-6.24 1.93-2.59 3.36-5.58 4.28-8.99.92-3.4 1.37-6.93 1.37-10.59 0-3.87-.5-7.52-1.49-10.95-1-3.43-2.5-6.43-4.51-9.02s-4.54-4.63-7.57-6.12c-3.04-1.49-6.62-2.24-10.75-2.24-4.24 0-7.86.79-10.87 2.35-3.01 1.57-5.45 3.68-7.34 6.32-1.88 2.64-3.27 5.7-4.16 9.18-.89 3.48-1.33 7.15-1.33 11.03 0 3.71.5 7.25 1.49 10.59.99 3.35 2.5 6.28 4.51 8.79 2.01 2.51 4.52 4.51 7.53 6 3 1.49 6.55 2.24 10.63 2.24zM584.01 171.64h21.34l17.26 60.27 17.97-60.27h16.71l16.95 60.27 17.58-60.27h19.62l-26.92 84.04h-20.4l-15.85-56.11-17.26 56.11h-20.56l-26.44-84.04z"/><g><path d="M360.84 104.43l36.97-53.42h-33.23V40.47h50.63v5.25l-36.07 53.42h35.03v10.54h-53.32v-5.25zM418.56 84.48c0-3.97.76-7.59 2.29-10.85s3.58-6.05 6.17-8.37c2.58-2.32 5.58-4.11 9-5.39 3.42-1.28 7.04-1.91 10.85-1.91 3.84 0 7.42.64 10.73 1.91 3.31 1.28 6.18 3.07 8.63 5.39s4.36 5.09 5.74 8.32c1.39 3.23 2.08 6.78 2.08 10.66 0 3.97-.73 7.58-2.17 10.83-1.45 3.25-3.43 6.02-5.93 8.32-2.51 2.3-5.44 4.08-8.82 5.34-3.37 1.26-6.97 1.89-10.78 1.89-3.84 0-7.46-.64-10.85-1.91-3.39-1.28-6.33-3.06-8.84-5.37-2.51-2.3-4.48-5.05-5.93-8.25-1.44-3.2-2.17-6.74-2.17-10.61zm28.13 16.82c2.52 0 4.69-.47 6.5-1.42 1.81-.95 3.3-2.2 4.47-3.76 1.17-1.56 2.03-3.36 2.58-5.41.55-2.05.83-4.18.83-6.38 0-2.33-.3-4.53-.9-6.59-.6-2.06-1.51-3.88-2.72-5.44-1.21-1.56-2.73-2.79-4.56-3.69-1.83-.9-3.99-1.35-6.48-1.35-2.55 0-4.74.47-6.55 1.42-1.81.95-3.29 2.21-4.42 3.81-1.13 1.59-1.97 3.44-2.5 5.53-.54 2.1-.8 4.31-.8 6.64 0 2.24.3 4.37.9 6.38s1.5 3.78 2.72 5.29c1.21 1.51 2.73 2.72 4.54 3.62 1.79.91 3.93 1.35 6.39 1.35zM482.9 36.12H495v30.96c.82-1.58 1.83-2.94 3.05-4.09 1.21-1.15 2.55-2.1 4.02-2.84 1.46-.74 3.04-1.29 4.73-1.65 1.69-.36 3.4-.54 5.13-.54 3.03 0 5.67.5 7.94 1.51 2.27 1.01 4.16 2.4 5.67 4.18 1.51 1.78 2.65 3.89 3.4 6.33.76 2.44 1.13 5.11 1.13 8.01v31.67h-12.2V79.18c0-3.66-.92-6.45-2.77-8.37s-4.53-2.88-8.06-2.88c-3.91 0-6.89 1.09-8.96 3.29s-3.1 5.1-3.1 8.72v29.73h-12.1V36.12zM537.92 84.48c0-3.97.76-7.59 2.29-10.85s3.58-6.05 6.17-8.37c2.58-2.32 5.58-4.11 9-5.39 3.42-1.28 7.04-1.91 10.85-1.91 3.84 0 7.42.64 10.73 1.91 3.31 1.28 6.18 3.07 8.63 5.39s4.36 5.09 5.74 8.32c1.39 3.23 2.08 6.78 2.08 10.66 0 3.97-.73 7.58-2.17 10.83-1.45 3.25-3.43 6.02-5.93 8.32-2.51 2.3-5.44 4.08-8.82 5.34-3.37 1.26-6.97 1.89-10.78 1.89-3.84 0-7.46-.64-10.85-1.91-3.39-1.28-6.33-3.06-8.84-5.37-2.51-2.3-4.48-5.05-5.93-8.25-1.44-3.2-2.17-6.74-2.17-10.61zm28.13 16.82c2.52 0 4.69-.47 6.5-1.42 1.81-.95 3.3-2.2 4.47-3.76 1.17-1.56 2.03-3.36 2.58-5.41.55-2.05.83-4.18.83-6.38 0-2.33-.3-4.53-.9-6.59-.6-2.06-1.51-3.88-2.72-5.44-1.21-1.56-2.73-2.79-4.56-3.69-1.83-.9-3.99-1.35-6.48-1.35-2.55 0-4.74.47-6.55 1.42-1.81.95-3.29 2.21-4.42 3.81-1.13 1.59-1.97 3.44-2.5 5.53-.54 2.1-.8 4.31-.8 6.64 0 2.24.3 4.37.9 6.38s1.5 3.78 2.72 5.29c1.21 1.51 2.73 2.72 4.54 3.62 1.8.91 3.93 1.35 6.39 1.35z"/></g><g><path d="M66 245.27c-2.94 0-5.79-1.52-7.37-4.25L7.38 152.25a8.492 8.492 0 010-8.5l68.25-118.2a8.496 8.496 0 017.36-4.25h136.5c4.01 0 7.51 2.79 8.35 6.72.83 3.92-1.16 7.87-4.81 9.5-.51.24-12.16 5.89-25.27 20.08-7.82 8.46-14.62 18.27-20.24 29.16-5.61 10.88-10.04 22.87-13.21 35.77l23.44-.02h.01c4.69 0 8.49 3.8 8.5 8.49 0 4.69-3.8 8.5-8.49 8.5l-33.98.02h-.01c-2.53 0-4.93-1.13-6.54-3.08s-2.28-4.52-1.81-7c3.53-18.63 9.36-35.82 17.33-51.11C169.18 66.01 177 54.9 186 45.31c2.42-2.58 4.81-4.92 7.11-7.03H87.89L24.55 148l48.81 84.53c2.35 4.06.95 9.26-3.11 11.61-1.34.77-2.8 1.13-4.25 1.13z" fill="#226db4"/><path d="M219.49 274.7H82.99c-4.01 0-7.51-2.79-8.35-6.72-.83-3.92 1.16-7.87 4.81-9.5.48-.23 12.14-5.88 25.27-20.08 7.81-8.46 14.62-18.27 20.24-29.15 5.61-10.88 10.04-22.87 13.22-35.76h-23.44a8.5 8.5 0 01-8.5-8.5 8.5 8.5 0 018.5-8.5h33.98c2.53 0 4.93 1.13 6.54 3.08a8.48 8.48 0 011.8 7c-3.53 18.62-9.36 35.81-17.33 51.09-6.42 12.32-14.24 23.43-23.24 33.02-2.42 2.58-4.8 4.92-7.1 7.02h105.19L277.93 148l-48.76-84.46c-2.34-4.06-.95-9.26 3.11-11.61 4.06-2.35 9.26-.95 11.61 3.11l51.22 88.7a8.492 8.492 0 010 8.5l-68.25 118.2a8.513 8.513 0 01-7.37 4.26z" fill="#009849"/></g></svg>
